<svg class="marks" width="483" height="251" viewBox="0 0 483 251" version="1.1" xmlns="http://www.w3.org/2000/svg" xmlns:xlink="http://www.w3.org/1999/xlink"><g transform="translate(79,11)"><g class="mark-group role-frame root"><g transform="translate(0,0)"><path class="background" d="M0.5,0.5h399v200h-399Z" style="fill: transparent; stroke: #ccc;"></path><g><g class="mark-group role-axis"><g transform="translate(0.5,0.5)"><path class="background" d="M0,0h0v0h0Z" style="pointer-events: none; fill: none;"></path><g><g class="mark-rule role-axis-grid" style="pointer-events: none;"><line transform="translate(0,200)" x2="399" y2="0" style="fill: none; stroke: #ddd; stroke-width: 1; stroke-dasharray: ; opacity: 1;"></line><line transform="translate(0,167)" x2="399" y2="0" style="fill: none; stroke: #ddd; stroke-width: 1; stroke-dasharray: ; opacity: 1;"></line><line transform="translate(0,133)" x2="399" y2="0" style="fill: none; stroke: #ddd; stroke-width: 1; stroke-dasharray: ; opacity: 1;"></line><line transform="translate(0,100)" x2="399" y2="0" style="fill: none; stroke: #ddd; stroke-width: 1; stroke-dasharray: ; opacity: 1;"></line><line transform="translate(0,67)" x2="399" y2="0" style="fill: none; stroke: #ddd; stroke-width: 1; stroke-dasharray: ; opacity: 1;"></line><line transform="translate(0,33)" x2="399" y2="0" style="fill: none; stroke: #ddd; stroke-width: 1; stroke-dasharray: ; opacity: 1;"></line><line transform="translate(0,0)" x2="399" y2="0" style="fill: none; stroke: #ddd; stroke-width: 1; stroke-dasharray: ; opacity: 1;"></line></g></g></g></g><g class="mark-rule role-boxWhisker layer_0_marks"><line transform="translate(10.5,176)" x2="0" y2="-39" style="fill: none; stroke: black;"></line><line transform="translate(31.5,177)" x2="0" y2="-37" style="fill: none; stroke: black;"></line><line transform="translate(52.5,180)" x2="0" y2="-33" style="fill: none; stroke: black;"></line><line transform="translate(73.5,182)" x2="0" y2="-29" style="fill: none; stroke: black;"></line><line transform="translate(94.5,183)" x2="0" y2="-30" style="fill: none; stroke: black;"></line><line transform="translate(115.5,187)" x2="0" y2="-27" style="fill: none; stroke: black;"></line><line transform="translate(136.5,189)" x2="0" y2="-22" style="fill: none; stroke: black;"></line><line transform="translate(157.5,192)" x2="0" y2="-21" style="fill: none; stroke: black;"></line><line transform="translate(178.5,193)" x2="0" y2="-17" style="fill: none; stroke: black;"></line><line transform="translate(199.5,194)" x2="0" y2="-14" style="fill: none; stroke: black;"></line><line transform="translate(220.5,195)" x2="0" y2="-13" style="fill: none; stroke: black;"></line><line transform="translate(241.5,197)" x2="0" y2="-10" style="fill: none; stroke: black;"></line><line transform="translate(262.5,197)" x2="0" y2="-8" style="fill: none; stroke: black;"></line><line transform="translate(283.5,198)" x2="0" y2="-5" style="fill: none; stroke: black;"></line><line transform="translate(304.5,199)" x2="0" y2="-4" style="fill: none; stroke: black;"></line><line transform="translate(325.5,199)" x2="0" y2="-2" style="fill: none; stroke: black;"></line><line transform="translate(346.5,200)" x2="0" y2="-1" style="fill: none; stroke: black;"></line><line transform="translate(367.5,200)" x2="0" y2="-1" style="fill: none; stroke: black;"></line><line transform="translate(388.5,200)" x2="0" y2="0" style="fill: none; stroke: black;"></line></g><g class="mark-rule role-boxWhisker layer_1_marks"><line transform="translate(10.5,60)" x2="0" y2="-33" style="fill: none; stroke: black;"></line><line transform="translate(31.5,54)" x2="0" y2="-30" style="fill: none; stroke: black;"></line><line transform="translate(52.5,58)" x2="0" y2="-37" style="fill: none; stroke: black;"></line><line transform="translate(73.5,65)" x2="0" y2="-43" style="fill: none; stroke: black;"></line><line transform="translate(94.5,79)" x2="0" y2="-56" style="fill: none; stroke: black;"></line><line transform="translate(115.5,92)" x2="0" y2="-70" style="fill: none; stroke: black;"></line><line transform="translate(136.5,102)" x2="0" y2="-87" style="fill: none; stroke: black;"></line><line transform="translate(157.5,100)" x2="0" y2="-94" style="fill: none; stroke: black;"></line><line transform="translate(178.5,105)" x2="0" y2="-96" style="fill: none; stroke: black;"></line><line transform="translate(199.5,109)" x2="0" y2="-80" style="fill: none; stroke: black;"></line><line transform="translate(220.5,113)" x2="0" y2="-62" style="fill: none; stroke: black;"></line><line transform="translate(241.5,122)" x2="0" y2="-37" style="fill: none; stroke: black;"></line><line transform="translate(262.5,134)" x2="0" y2="-28" style="fill: none; stroke: black;"></line><line transform="translate(283.5,146)" x2="0" y2="-39" style="fill: none; stroke: black;"></line><line transform="translate(304.5,159)" x2="0" y2="-45" style="fill: none; stroke: black;"></line><line transform="translate(325.5,173)" x2="0" y2="-46" style="fill: none; stroke: black;"></line><line transform="translate(346.5,185)" x2="0" y2="-39" style="fill: none; stroke: black;"></line><line transform="translate(367.5,194)" x2="0" y2="-27" style="fill: none; stroke: black;"></line><line transform="translate(388.5,197)" x2="0" y2="-15" style="fill: none; stroke: black;"></line></g><g class="mark-rect role-box layer_2_marks"><path d="M3.5,60h14v77h-14Z" style="fill: #4c78a8;"></path><path d="M24.5,54h14v86h-14Z" style="fill: #4c78a8;"></path><path d="M45.5,58h14v89h-14Z" style="fill: #4c78a8;"></path><path d="M66.5,65h14v88h-14Z" style="fill: #4c78a8;"></path><path d="M87.5,79h14v74h-14Z" style="fill: #4c78a8;"></path><path d="M108.5,92h14v68h-14Z" style="fill: #4c78a8;"></path><path d="M129.5,102h14v65h-14Z" style="fill: #4c78a8;"></path><path d="M150.5,100h14v71h-14Z" style="fill: #4c78a8;"></path><path d="M171.5,105h14v71h-14Z" style="fill: #4c78a8;"></path><path d="M192.5,109h14v71h-14Z" style="fill: #4c78a8;"></path><path d="M213.5,113h14v69h-14Z" style="fill: #4c78a8;"></path><path d="M234.5,122h14v65h-14Z" style="fill: #4c78a8;"></path><path d="M255.5,134h14v55h-14Z" style="fill: #4c78a8;"></path><path d="M276.5,146h14v47h-14Z" style="fill: #4c78a8;"></path><path d="M297.5,159h14v36h-14Z" style="fill: #4c78a8;"></path><path d="M318.5,173h14v24h-14Z" style="fill: #4c78a8;"></path><path d="M339.5,185h14v14h-14Z" style="fill: #4c78a8;"></path><path d="M360.5,194h14v5h-14Z" style="fill: #4c78a8;"></path><path d="M381.5,197h14v3h-14Z" style="fill: #4c78a8;"></path></g><g class="mark-rect role-boxMid layer_3_marks"><path d="M3.5,104.5h14v1h-14Z" style="fill: #4c78a8; opacity: 0.7;"></path><path d="M24.5,103.5h14v1h-14Z" style="fill: #4c78a8; opacity: 0.7;"></path><path d="M45.5,107.5h14v1h-14Z" style="fill: #4c78a8; opacity: 0.7;"></path><path d="M66.5,111.5h14v1h-14Z" style="fill: #4c78a8; opacity: 0.7;"></path><path d="M87.5,111.5h14v1h-14Z" style="fill: #4c78a8; opacity: 0.7;"></path><path d="M108.5,116.5h14v1h-14Z" style="fill: #4c78a8; opacity: 0.7;"></path><path d="M129.5,125.5h14v1h-14Z" style="fill: #4c78a8; opacity: 0.7;"></path><path d="M150.5,123.5h14v1h-14Z" style="fill: #4c78a8; opacity: 0.7;"></path><path d="M171.5,134.5h14v1h-14Z" style="fill: #4c78a8; opacity: 0.7;"></path><path d="M192.5,140.5h14v1h-14Z" style="fill: #4c78a8; opacity: 0.7;"></path><path d="M213.5,150.5h14v1h-14Z" style="fill: #4c78a8; opacity: 0.7;"></path><path d="M234.5,160.5h14v1h-14Z" style="fill: #4c78a8; opacity: 0.7;"></path><path d="M255.5,168.5h14v1h-14Z" style="fill: #4c78a8; opacity: 0.7;"></path><path d="M276.5,176.5h14v1h-14Z" style="fill: #4c78a8; opacity: 0.7;"></path><path d="M297.5,184.5h14v1h-14Z" style="fill: #4c78a8; opacity: 0.7;"></path><path d="M318.5,190.5h14v1h-14Z" style="fill: #4c78a8; opacity: 0.7;"></path><path d="M339.5,195.5h14v1h-14Z" style="fill: #4c78a8; opacity: 0.7;"></path><path d="M360.5,197.5h14v1h-14Z" style="fill: #4c78a8; opacity: 0.7;"></path><path d="M381.5,198.5h14v1h-14Z" style="fill: #4c78a8; opacity: 0.7;"></path></g><g class="mark-group role-axis"><g transform="translate(0.5,200.5)"><path class="background" d="M0,0h0v0h0Z" style="pointer-events: none; fill: none;"></path><g><g class="mark-rule role-axis-tick" style="pointer-events: none;"><line transform="translate(10,0)" x2="0" y2="5" style="fill: none; stroke: #888; stroke-width: 1; opacity: 1;"></line><line transform="translate(31,0)" x2="0" y2="5" style="fill: none; stroke: #888; stroke-width: 1; opacity: 1;"></line><line transform="translate(52,0)" x2="0" y2="5" style="fill: none; stroke: #888; stroke-width: 1; opacity: 1;"></line><line transform="translate(73,0)" x2="0" y2="5" style="fill: none; stroke: #888; stroke-width: 1; opacity: 1;"></line><line transform="translate(94,0)" x2="0" y2="5" style="fill: none; stroke: #888; stroke-width: 1; opacity: 1;"></line><line transform="translate(115,0)" x2="0" y2="5" style="fill: none; stroke: #888; stroke-width: 1; opacity: 1;"></line><line transform="translate(136,0)" x2="0" y2="5" style="fill: none; stroke: #888; stroke-width: 1; opacity: 1;"></line><line transform="translate(157,0)" x2="0" y2="5" style="fill: none; stroke: #888; stroke-width: 1; opacity: 1;"></line><line transform="translate(178,0)" x2="0" y2="5" style="fill: none; stroke: #888; stroke-width: 1; opacity: 1;"></line><line transform="translate(199,0)" x2="0" y2="5" style="fill: none; stroke: #888; stroke-width: 1; opacity: 1;"></line><line transform="translate(220,0)" x2="0" y2="5" style="fill: none; stroke: #888; stroke-width: 1; opacity: 1;"></line><line transform="translate(241,0)" x2="0" y2="5" style="fill: none; stroke: #888; stroke-width: 1; opacity: 1;"></line><line transform="translate(262,0)" x2="0" y2="5" style="fill: none; stroke: #888; stroke-width: 1; opacity: 1;"></line><line transform="translate(283,0)" x2="0" y2="5" style="fill: none; stroke: #888; stroke-width: 1; opacity: 1;"></line><line transform="translate(304,0)" x2="0" y2="5" style="fill: none; stroke: #888; stroke-width: 1; opacity: 1;"></line><line transform="translate(325,0)" x2="0" y2="5" style="fill: none; stroke: #888; stroke-width: 1; opacity: 1;"></line><line transform="translate(346,0)" x2="0" y2="5" style="fill: none; stroke: #888; stroke-width: 1; opacity: 1;"></line><line transform="translate(367,0)" x2="0" y2="5" style="fill: none; stroke: #888; stroke-width: 1; opacity: 1;"></line><line transform="translate(388,0)" x2="0" y2="5" style="fill: none; stroke: #888; stroke-width: 1; opacity: 1;"></line></g><g class="mark-text role-axis-label" style="pointer-events: none;"><text text-anchor="end" transform="translate(9.5,7) rotate(270) translate(0,3)" style="font: 10px sans-serif; fill: #000; opacity: 1;">0</text><text text-anchor="end" transform="translate(30.5,7) rotate(270) translate(0,3)" style="font: 10px sans-serif; fill: #000; opacity: 1;">5</text><text text-anchor="end" transform="translate(51.5,7) rotate(270) translate(0,3)" style="font: 10px sans-serif; fill: #000; opacity: 1;">10</text><text text-anchor="end" transform="translate(72.5,7) rotate(270) translate(0,3)" style="font: 10px sans-serif; fill: #000; opacity: 1;">15</text><text text-anchor="end" transform="translate(93.5,7) rotate(270) translate(0,3)" style="font: 10px sans-serif; fill: #000; opacity: 1;">20</text><text text-anchor="end" transform="translate(114.5,7) rotate(270) translate(0,3)" style="font: 10px sans-serif; fill: #000; opacity: 1;">25</text><text text-anchor="end" transform="translate(135.5,7) rotate(270) translate(0,3)" style="font: 10px sans-serif; fill: #000; opacity: 1;">30</text><text text-anchor="end" transform="translate(156.5,7) rotate(270) translate(0,3)" style="font: 10px sans-serif; fill: #000; opacity: 1;">35</text><text text-anchor="end" transform="translate(177.5,7) rotate(270) translate(0,3)" style="font: 10px sans-serif; fill: #000; opacity: 1;">40</text><text text-anchor="end" transform="translate(198.5,7) rotate(270) translate(0,3)" style="font: 10px sans-serif; fill: #000; opacity: 1;">45</text><text text-anchor="end" transform="translate(219.5,7) rotate(270) translate(0,3)" style="font: 10px sans-serif; fill: #000; opacity: 1;">50</text><text text-anchor="end" transform="translate(240.5,7) rotate(270) translate(0,3)" style="font: 10px sans-serif; fill: #000; opacity: 1;">55</text><text text-anchor="end" transform="translate(261.5,7) rotate(270) translate(0,3)" style="font: 10px sans-serif; fill: #000; opacity: 1;">60</text><text text-anchor="end" transform="translate(282.5,7) rotate(270) translate(0,3)" style="font: 10px sans-serif; fill: #000; opacity: 1;">65</text><text text-anchor="end" transform="translate(303.5,7) rotate(270) translate(0,3)" style="font: 10px sans-serif; fill: #000; opacity: 1;">70</text><text text-anchor="end" transform="translate(324.5,7) rotate(270) translate(0,3)" style="font: 10px sans-serif; fill: #000; opacity: 1;">75</text><text text-anchor="end" transform="translate(345.5,7) rotate(270) translate(0,3)" style="font: 10px sans-serif; fill: #000; opacity: 1;">80</text><text text-anchor="end" transform="translate(366.5,7) rotate(270) translate(0,3)" style="font: 10px sans-serif; fill: #000; opacity: 1;">85</text><text text-anchor="end" transform="translate(387.5,7) rotate(270) translate(0,3)" style="font: 10px sans-serif; fill: #000; opacity: 1;">90</text></g><g class="mark-rule role-axis-domain" style="pointer-events: none;"><line transform="translate(0,0)" x2="399" y2="0" style="fill: none; stroke: #888; stroke-width: 1; opacity: 1;"></line></g><g class="mark-text role-axis-title" style="pointer-events: none;"><text text-anchor="middle" transform="translate(199.5,31.123046875)" style="font: bold 11px sans-serif; fill: #000; opacity: 1;">age</text></g></g></g></g><g class="mark-group role-axis"><g transform="translate(0.5,0.5)"><path class="background" d="M0,0h0v0h0Z" style="pointer-events: none; fill: none;"></path><g><g class="mark-rule role-axis-tick" style="pointer-events: none;"><line transform="translate(0,200)" x2="-5" y2="0" style="fill: none; stroke: #888; stroke-width: 1; opacity: 1;"></line><line transform="translate(0,167)" x2="-5" y2="0" style="fill: none; stroke: #888; stroke-width: 1; opacity: 1;"></line><line transform="translate(0,133)" x2="-5" y2="0" style="fill: none; stroke: #888; stroke-width: 1; opacity: 1;"></line><line transform="translate(0,100)" x2="-5" y2="0" style="fill: none; stroke: #888; stroke-width: 1; opacity: 1;"></line><line transform="translate(0,67)" x2="-5" y2="0" style="fill: none; stroke: #888; stroke-width: 1; opacity: 1;"></line><line transform="translate(0,33)" x2="-5" y2="0" style="fill: none; stroke: #888; stroke-width: 1; opacity: 1;"></line><line transform="translate(0,0)" x2="-5" y2="0" style="fill: none; stroke: #888; stroke-width: 1; opacity: 1;"></line></g><g class="mark-text role-axis-label" style="pointer-events: none;"><text text-anchor="end" transform="translate(-7,203)" style="font: 10px sans-serif; fill: #000; opacity: 1;">0</text><text text-anchor="end" transform="translate(-7,170)" style="font: 10px sans-serif; fill: #000; opacity: 1;">2,000,000</text><text text-anchor="end" transform="translate(-7,136)" style="font: 10px sans-serif; fill: #000; opacity: 1;">4,000,000</text><text text-anchor="end" transform="translate(-7,103)" style="font: 10px sans-serif; fill: #000; opacity: 1;">6,000,000</text><text text-anchor="end" transform="translate(-7,70)" style="font: 10px sans-serif; fill: #000; opacity: 1;">8,000,000</text><text text-anchor="end" transform="translate(-7,36)" style="font: 10px sans-serif; fill: #000; opacity: 1;">10,000,000</text><text text-anchor="end" transform="translate(-7,3)" style="font: 10px sans-serif; fill: #000; opacity: 1;">12,000,000</text></g><g class="mark-rule role-axis-domain" style="pointer-events: none;"><line transform="translate(0,200)" x2="0" y2="-200" style="fill: none; stroke: #888; stroke-width: 1; opacity: 1;"></line></g><g class="mark-text role-axis-title" style="pointer-events: none;"><text text-anchor="middle" transform="translate(-60.048828125,100) rotate(-90) translate(0,-2)" style="font: bold 11px sans-serif; fill: #000; opacity: 1;">population</text></g></g></g></g></g></g></g></g></svg>