<svg class="marks" width="255" height="443" viewBox="0 0 255 443" version="1.1" xmlns="http://www.w3.org/2000/svg" xmlns:xlink="http://www.w3.org/1999/xlink"><g transform="translate(50,5)"><g class="mark-group role-frame root"><g transform="translate(0,0)"><path class="background" d="M0.5,0.5h200v399h-200Z" style="fill: transparent; stroke: #ccc;"></path><g><g class="mark-group role-axis"><g transform="translate(0.5,399.5)"><path class="background" d="M0,0h0v0h0Z" style="pointer-events: none; fill: none;"></path><g><g class="mark-rule role-axis-grid" style="pointer-events: none;"><line transform="translate(0,0)" x2="0" y2="-399" style="fill: none; stroke: #ddd; stroke-width: 1; stroke-dasharray: ; opacity: 1;"></line><line transform="translate(56,0)" x2="0" y2="-399" style="fill: none; stroke: #ddd; stroke-width: 1; stroke-dasharray: ; opacity: 1;"></line><line transform="translate(111,0)" x2="0" y2="-399" style="fill: none; stroke: #ddd; stroke-width: 1; stroke-dasharray: ; opacity: 1;"></line><line transform="translate(167,0)" x2="0" y2="-399" style="fill: none; stroke: #ddd; stroke-width: 1; stroke-dasharray: ; opacity: 1;"></line></g></g></g></g><g class="mark-rule role-boxWhisker layer_0_marks"><line transform="translate(170,10.5)" x2="-128" y2="0" style="fill: none; stroke: black;"></line><line transform="translate(184,31.5)" x2="-144" y2="0" style="fill: none; stroke: black;"></line><line transform="translate(183,52.5)" x2="-148" y2="0" style="fill: none; stroke: black;"></line><line transform="translate(178,73.5)" x2="-146" y2="0" style="fill: none; stroke: black;"></line><line transform="translate(155,94.5)" x2="-124" y2="0" style="fill: none; stroke: black;"></line><line transform="translate(140,115.5)" x2="-113" y2="0" style="fill: none; stroke: black;"></line><line transform="translate(130,136.5)" x2="-108" y2="0" style="fill: none; stroke: black;"></line><line transform="translate(137,157.5)" x2="-118" y2="0" style="fill: none; stroke: black;"></line><line transform="translate(135,178.5)" x2="-119" y2="0" style="fill: none; stroke: black;"></line><line transform="translate(132,199.5)" x2="-119" y2="0" style="fill: none; stroke: black;"></line><line transform="translate(127,220.5)" x2="-115" y2="0" style="fill: none; stroke: black;"></line><line transform="translate(117,241.5)" x2="-108" y2="0" style="fill: none; stroke: black;"></line><line transform="translate(99,262.5)" x2="-92" y2="0" style="fill: none; stroke: black;"></line><line transform="translate(83,283.5)" x2="-78" y2="0" style="fill: none; stroke: black;"></line><line transform="translate(64,304.5)" x2="-61" y2="0" style="fill: none; stroke: black;"></line><line transform="translate(42,325.5)" x2="-40" y2="0" style="fill: none; stroke: black;"></line><line transform="translate(23,346.5)" x2="-22" y2="0" style="fill: none; stroke: black;"></line><line transform="translate(10,367.5)" x2="-10" y2="0" style="fill: none; stroke: black;"></line><line transform="translate(5,388.5)" x2="-5" y2="0" style="fill: none; stroke: black;"></line></g><g class="mark-rule role-boxWhisker layer_1_marks"><line transform="translate(93,10.5)" x2="-93" y2="0" style="fill: none; stroke: black;"></line><line transform="translate(97,31.5)" x2="-97" y2="0" style="fill: none; stroke: black;"></line><line transform="translate(95,52.5)" x2="-95" y2="0" style="fill: none; stroke: black;"></line><line transform="translate(90,73.5)" x2="-90" y2="0" style="fill: none; stroke: black;"></line><line transform="translate(81,94.5)" x2="-81" y2="0" style="fill: none; stroke: black;"></line><line transform="translate(72,115.5)" x2="-72" y2="0" style="fill: none; stroke: black;"></line><line transform="translate(65,136.5)" x2="-65" y2="0" style="fill: none; stroke: black;"></line><line transform="translate(66,157.5)" x2="-66" y2="0" style="fill: none; stroke: black;"></line><line transform="translate(63,178.5)" x2="-63" y2="0" style="fill: none; stroke: black;"></line><line transform="translate(61,199.5)" x2="-61" y2="0" style="fill: none; stroke: black;"></line><line transform="translate(58,220.5)" x2="-58" y2="0" style="fill: none; stroke: black;"></line><line transform="translate(52,241.5)" x2="-52" y2="0" style="fill: none; stroke: black;"></line><line transform="translate(44,262.5)" x2="-44" y2="0" style="fill: none; stroke: black;"></line><line transform="translate(36,283.5)" x2="-36" y2="0" style="fill: none; stroke: black;"></line><line transform="translate(27,304.5)" x2="-27" y2="0" style="fill: none; stroke: black;"></line><line transform="translate(18,325.5)" x2="-18" y2="0" style="fill: none; stroke: black;"></line><line transform="translate(10,346.5)" x2="-10" y2="0" style="fill: none; stroke: black;"></line><line transform="translate(4,367.5)" x2="-4" y2="0" style="fill: none; stroke: black;"></line><line transform="translate(2,388.5)" x2="-2" y2="0" style="fill: none; stroke: black;"></line></g><g class="mark-rect role-box layer_2_marks"><path d="M42,3.5h51v14h-51Z" style="fill: #4c78a8;"></path><path d="M40,24.5h57v14h-57Z" style="fill: #4c78a8;"></path><path d="M35,45.5h60v14h-60Z" style="fill: #4c78a8;"></path><path d="M32,66.5h58v14h-58Z" style="fill: #4c78a8;"></path><path d="M31,87.5h50v14h-50Z" style="fill: #4c78a8;"></path><path d="M27,108.5h45v14h-45Z" style="fill: #4c78a8;"></path><path d="M22,129.5h43v14h-43Z" style="fill: #4c78a8;"></path><path d="M19,150.5h47v14h-47Z" style="fill: #4c78a8;"></path><path d="M16,171.5h47v14h-47Z" style="fill: #4c78a8;"></path><path d="M13,192.5h48v14h-48Z" style="fill: #4c78a8;"></path><path d="M12,213.5h46v14h-46Z" style="fill: #4c78a8;"></path><path d="M9,234.5h43v14h-43Z" style="fill: #4c78a8;"></path><path d="M7,255.5h37v14h-37Z" style="fill: #4c78a8;"></path><path d="M5,276.5h31v14h-31Z" style="fill: #4c78a8;"></path><path d="M3,297.5h24v14h-24Z" style="fill: #4c78a8;"></path><path d="M2,318.5h16v14h-16Z" style="fill: #4c78a8;"></path><path d="M1,339.5h9v14h-9Z" style="fill: #4c78a8;"></path><path d="M0,360.5h4v14h-4Z" style="fill: #4c78a8;"></path><path d="M0,381.5h2v14h-2Z" style="fill: #4c78a8;"></path></g><g class="mark-rect role-boxMid layer_3_marks"><path d="M62.5,3.5h1v14h-1Z" style="fill: #4c78a8; opacity: 0.7;"></path><path d="M63.5,24.5h1v14h-1Z" style="fill: #4c78a8; opacity: 0.7;"></path><path d="M60.5,45.5h1v14h-1Z" style="fill: #4c78a8; opacity: 0.7;"></path><path d="M58.5,66.5h1v14h-1Z" style="fill: #4c78a8; opacity: 0.7;"></path><path d="M58.5,87.5h1v14h-1Z" style="fill: #4c78a8; opacity: 0.7;"></path><path d="M54.5,108.5h1v14h-1Z" style="fill: #4c78a8; opacity: 0.7;"></path><path d="M48.5,129.5h1v14h-1Z" style="fill: #4c78a8; opacity: 0.7;"></path><path d="M50.5,150.5h1v14h-1Z" style="fill: #4c78a8; opacity: 0.7;"></path><path d="M42.5,171.5h1v14h-1Z" style="fill: #4c78a8; opacity: 0.7;"></path><path d="M38.5,192.5h1v14h-1Z" style="fill: #4c78a8; opacity: 0.7;"></path><path d="M32.5,213.5h1v14h-1Z" style="fill: #4c78a8; opacity: 0.7;"></path><path d="M25.5,234.5h1v14h-1Z" style="fill: #4c78a8; opacity: 0.7;"></path><path d="M20.5,255.5h1v14h-1Z" style="fill: #4c78a8; opacity: 0.7;"></path><path d="M14.5,276.5h1v14h-1Z" style="fill: #4c78a8; opacity: 0.7;"></path><path d="M9.5,297.5h1v14h-1Z" style="fill: #4c78a8; opacity: 0.7;"></path><path d="M5.5,318.5h1v14h-1Z" style="fill: #4c78a8; opacity: 0.7;"></path><path d="M2.5,339.5h1v14h-1Z" style="fill: #4c78a8; opacity: 0.7;"></path><path d="M0.5,360.5h1v14h-1Z" style="fill: #4c78a8; opacity: 0.7;"></path><path d="M-0.5,381.5h1v14h-1Z" style="fill: #4c78a8; opacity: 0.7;"></path></g><g class="mark-group role-axis"><g transform="translate(0.5,399.5)"><path class="background" d="M0,0h0v0h0Z" style="pointer-events: none; fill: none;"></path><g><g class="mark-rule role-axis-tick" style="pointer-events: none;"><line transform="translate(0,0)" x2="0" y2="5" style="fill: none; stroke: #888; stroke-width: 1; opacity: 1;"></line><line transform="translate(56,0)" x2="0" y2="5" style="fill: none; stroke: #888; stroke-width: 1; opacity: 1;"></line><line transform="translate(111,0)" x2="0" y2="5" style="fill: none; stroke: #888; stroke-width: 1; opacity: 1;"></line><line transform="translate(167,0)" x2="0" y2="5" style="fill: none; stroke: #888; stroke-width: 1; opacity: 1;"></line></g><g class="mark-text role-axis-label" style="pointer-events: none;"><text text-anchor="middle" transform="translate(0,16)" style="font: 10px sans-serif; fill: #000; opacity: 1;">0</text><text text-anchor="middle" transform="translate(56,16)" style="font: 10px sans-serif; fill: #000; opacity: 1;">5,000,000</text><text text-anchor="middle" transform="translate(111,16)" style="font: 10px sans-serif; fill: #000; opacity: 1;">10,000,000</text><text text-anchor="middle" transform="translate(167,16)" style="font: 10px sans-serif; fill: #000; opacity: 1;">15,000,000</text></g><g class="mark-rule role-axis-domain" style="pointer-events: none;"><line transform="translate(0,0)" x2="200" y2="0" style="fill: none; stroke: #888; stroke-width: 1; opacity: 1;"></line></g><g class="mark-text role-axis-title" style="pointer-events: none;"><text text-anchor="middle" transform="translate(100,31)" style="font: bold 11px sans-serif; fill: #000; opacity: 1;">population</text></g></g></g></g><g class="mark-group role-axis"><g transform="translate(0.5,0.5)"><path class="background" d="M0,0h0v0h0Z" style="pointer-events: none; fill: none;"></path><g><g class="mark-rule role-axis-tick" style="pointer-events: none;"><line transform="translate(0,10)" x2="-5" y2="0" style="fill: none; stroke: #888; stroke-width: 1; opacity: 1;"></line><line transform="translate(0,31)" x2="-5" y2="0" style="fill: none; stroke: #888; stroke-width: 1; opacity: 1;"></line><line transform="translate(0,52)" x2="-5" y2="0" style="fill: none; stroke: #888; stroke-width: 1; opacity: 1;"></line><line transform="translate(0,73)" x2="-5" y2="0" style="fill: none; stroke: #888; stroke-width: 1; opacity: 1;"></line><line transform="translate(0,94)" x2="-5" y2="0" style="fill: none; stroke: #888; stroke-width: 1; opacity: 1;"></line><line transform="translate(0,115)" x2="-5" y2="0" style="fill: none; stroke: #888; stroke-width: 1; opacity: 1;"></line><line transform="translate(0,136)" x2="-5" y2="0" style="fill: none; stroke: #888; stroke-width: 1; opacity: 1;"></line><line transform="translate(0,157)" x2="-5" y2="0" style="fill: none; stroke: #888; stroke-width: 1; opacity: 1;"></line><line transform="translate(0,178)" x2="-5" y2="0" style="fill: none; stroke: #888; stroke-width: 1; opacity: 1;"></line><line transform="translate(0,199)" x2="-5" y2="0" style="fill: none; stroke: #888; stroke-width: 1; opacity: 1;"></line><line transform="translate(0,220)" x2="-5" y2="0" style="fill: none; stroke: #888; stroke-width: 1; opacity: 1;"></line><line transform="translate(0,241)" x2="-5" y2="0" style="fill: none; stroke: #888; stroke-width: 1; opacity: 1;"></line><line transform="translate(0,262)" x2="-5" y2="0" style="fill: none; stroke: #888; stroke-width: 1; opacity: 1;"></line><line transform="translate(0,283)" x2="-5" y2="0" style="fill: none; stroke: #888; stroke-width: 1; opacity: 1;"></line><line transform="translate(0,304)" x2="-5" y2="0" style="fill: none; stroke: #888; stroke-width: 1; opacity: 1;"></line><line transform="translate(0,325)" x2="-5" y2="0" style="fill: none; stroke: #888; stroke-width: 1; opacity: 1;"></line><line transform="translate(0,346)" x2="-5" y2="0" style="fill: none; stroke: #888; stroke-width: 1; opacity: 1;"></line><line transform="translate(0,367)" x2="-5" y2="0" style="fill: none; stroke: #888; stroke-width: 1; opacity: 1;"></line><line transform="translate(0,388)" x2="-5" y2="0" style="fill: none; stroke: #888; stroke-width: 1; opacity: 1;"></line></g><g class="mark-text role-axis-label" style="pointer-events: none;"><text text-anchor="end" transform="translate(-7,12.5)" style="font: 10px sans-serif; fill: #000; opacity: 1;">0</text><text text-anchor="end" transform="translate(-7,33.5)" style="font: 10px sans-serif; fill: #000; opacity: 1;">5</text><text text-anchor="end" transform="translate(-7,54.5)" style="font: 10px sans-serif; fill: #000; opacity: 1;">10</text><text text-anchor="end" transform="translate(-7,75.5)" style="font: 10px sans-serif; fill: #000; opacity: 1;">15</text><text text-anchor="end" transform="translate(-7,96.5)" style="font: 10px sans-serif; fill: #000; opacity: 1;">20</text><text text-anchor="end" transform="translate(-7,117.5)" style="font: 10px sans-serif; fill: #000; opacity: 1;">25</text><text text-anchor="end" transform="translate(-7,138.5)" style="font: 10px sans-serif; fill: #000; opacity: 1;">30</text><text text-anchor="end" transform="translate(-7,159.5)" style="font: 10px sans-serif; fill: #000; opacity: 1;">35</text><text text-anchor="end" transform="translate(-7,180.5)" style="font: 10px sans-serif; fill: #000; opacity: 1;">40</text><text text-anchor="end" transform="translate(-7,201.5)" style="font: 10px sans-serif; fill: #000; opacity: 1;">45</text><text text-anchor="end" transform="translate(-7,222.5)" style="font: 10px sans-serif; fill: #000; opacity: 1;">50</text><text text-anchor="end" transform="translate(-7,243.5)" style="font: 10px sans-serif; fill: #000; opacity: 1;">55</text><text text-anchor="end" transform="translate(-7,264.5)" style="font: 10px sans-serif; fill: #000; opacity: 1;">60</text><text text-anchor="end" transform="translate(-7,285.5)" style="font: 10px sans-serif; fill: #000; opacity: 1;">65</text><text text-anchor="end" transform="translate(-7,306.5)" style="font: 10px sans-serif; fill: #000; opacity: 1;">70</text><text text-anchor="end" transform="translate(-7,327.5)" style="font: 10px sans-serif; fill: #000; opacity: 1;">75</text><text text-anchor="end" transform="translate(-7,348.5)" style="font: 10px sans-serif; fill: #000; opacity: 1;">80</text><text text-anchor="end" transform="translate(-7,369.5)" style="font: 10px sans-serif; fill: #000; opacity: 1;">85</text><text text-anchor="end" transform="translate(-7,390.5)" style="font: 10px sans-serif; fill: #000; opacity: 1;">90</text></g><g class="mark-rule role-axis-domain" style="pointer-events: none;"><line transform="translate(0,0)" x2="0" y2="399" style="fill: none; stroke: #888; stroke-width: 1; opacity: 1;"></line></g><g class="mark-text role-axis-title" style="pointer-events: none;"><text text-anchor="middle" transform="translate(-32,199.5) rotate(-90) translate(0,-2)" style="font: bold 11px sans-serif; fill: #000; opacity: 1;">age</text></g></g></g></g></g></g></g></g></svg>