<svg class="marks" width="282" height="443" viewBox="0 0 282 443" version="1.1" xmlns="http://www.w3.org/2000/svg" xmlns:xlink="http://www.w3.org/1999/xlink"><g transform="translate(50,5)"><g class="mark-group role-frame root"><g transform="translate(0,0)"><path class="background" d="M0.5,0.5h200v399h-200Z" style="fill: transparent; stroke: #ccc;"></path><g><g class="mark-group role-axis"><g transform="translate(0.5,399.5)"><path class="background" d="M0,0h0v0h0Z" style="pointer-events: none; fill: none;"></path><g><g class="mark-rule role-axis-grid" style="pointer-events: none;"><line transform="translate(0,0)" x2="0" y2="-399" style="fill: none; stroke: #ddd; stroke-width: 1; stroke-dasharray: ; opacity: 1;"></line><line transform="translate(33,0)" x2="0" y2="-399" style="fill: none; stroke: #ddd; stroke-width: 1; stroke-dasharray: ; opacity: 1;"></line><line transform="translate(67,0)" x2="0" y2="-399" style="fill: none; stroke: #ddd; stroke-width: 1; stroke-dasharray: ; opacity: 1;"></line><line transform="translate(100,0)" x2="0" y2="-399" style="fill: none; stroke: #ddd; stroke-width: 1; stroke-dasharray: ; opacity: 1;"></line><line transform="translate(133,0)" x2="0" y2="-399" style="fill: none; stroke: #ddd; stroke-width: 1; stroke-dasharray: ; opacity: 1;"></line><line transform="translate(167,0)" x2="0" y2="-399" style="fill: none; stroke: #ddd; stroke-width: 1; stroke-dasharray: ; opacity: 1;"></line><line transform="translate(200,0)" x2="0" y2="-399" style="fill: none; stroke: #ddd; stroke-width: 1; stroke-dasharray: ; opacity: 1;"></line></g></g></g></g><g class="mark-rule role-boxWhisker layer_0_marks"><line transform="translate(24,10.5)" x2="39" y2="0" style="fill: none; stroke: black;"></line><line transform="translate(23,31.5)" x2="37" y2="0" style="fill: none; stroke: black;"></line><line transform="translate(20,52.5)" x2="33" y2="0" style="fill: none; stroke: black;"></line><line transform="translate(18,73.5)" x2="29" y2="0" style="fill: none; stroke: black;"></line><line transform="translate(17,94.5)" x2="30" y2="0" style="fill: none; stroke: black;"></line><line transform="translate(13,115.5)" x2="27" y2="0" style="fill: none; stroke: black;"></line><line transform="translate(11,136.5)" x2="22" y2="0" style="fill: none; stroke: black;"></line><line transform="translate(8,157.5)" x2="21" y2="0" style="fill: none; stroke: black;"></line><line transform="translate(7,178.5)" x2="17" y2="0" style="fill: none; stroke: black;"></line><line transform="translate(6,199.5)" x2="14" y2="0" style="fill: none; stroke: black;"></line><line transform="translate(5,220.5)" x2="13" y2="0" style="fill: none; stroke: black;"></line><line transform="translate(3,241.5)" x2="10" y2="0" style="fill: none; stroke: black;"></line><line transform="translate(3,262.5)" x2="8" y2="0" style="fill: none; stroke: black;"></line><line transform="translate(2,283.5)" x2="5" y2="0" style="fill: none; stroke: black;"></line><line transform="translate(1,304.5)" x2="4" y2="0" style="fill: none; stroke: black;"></line><line transform="translate(1,325.5)" x2="2" y2="0" style="fill: none; stroke: black;"></line><line transform="translate(0,346.5)" x2="1" y2="0" style="fill: none; stroke: black;"></line><line transform="translate(0,367.5)" x2="1" y2="0" style="fill: none; stroke: black;"></line><line transform="translate(0,388.5)" x2="0" y2="0" style="fill: none; stroke: black;"></line></g><g class="mark-rule role-boxWhisker layer_1_marks"><line transform="translate(140,10.5)" x2="33" y2="0" style="fill: none; stroke: black;"></line><line transform="translate(146,31.5)" x2="30" y2="0" style="fill: none; stroke: black;"></line><line transform="translate(142,52.5)" x2="37" y2="0" style="fill: none; stroke: black;"></line><line transform="translate(135,73.5)" x2="43" y2="0" style="fill: none; stroke: black;"></line><line transform="translate(121,94.5)" x2="56" y2="0" style="fill: none; stroke: black;"></line><line transform="translate(108,115.5)" x2="70" y2="0" style="fill: none; stroke: black;"></line><line transform="translate(98,136.5)" x2="87" y2="0" style="fill: none; stroke: black;"></line><line transform="translate(100,157.5)" x2="94" y2="0" style="fill: none; stroke: black;"></line><line transform="translate(95,178.5)" x2="96" y2="0" style="fill: none; stroke: black;"></line><line transform="translate(91,199.5)" x2="80" y2="0" style="fill: none; stroke: black;"></line><line transform="translate(87,220.5)" x2="62" y2="0" style="fill: none; stroke: black;"></line><line transform="translate(78,241.5)" x2="37" y2="0" style="fill: none; stroke: black;"></line><line transform="translate(66,262.5)" x2="28" y2="0" style="fill: none; stroke: black;"></line><line transform="translate(54,283.5)" x2="39" y2="0" style="fill: none; stroke: black;"></line><line transform="translate(41,304.5)" x2="45" y2="0" style="fill: none; stroke: black;"></line><line transform="translate(27,325.5)" x2="46" y2="0" style="fill: none; stroke: black;"></line><line transform="translate(15,346.5)" x2="39" y2="0" style="fill: none; stroke: black;"></line><line transform="translate(6,367.5)" x2="27" y2="0" style="fill: none; stroke: black;"></line><line transform="translate(3,388.5)" x2="15" y2="0" style="fill: none; stroke: black;"></line></g><g class="mark-rect role-box layer_2_marks"><path d="M63,3.5h77v14h-77Z" style="fill: #4c78a8;"></path><path d="M60,24.5h86v14h-86Z" style="fill: #4c78a8;"></path><path d="M53,45.5h89v14h-89Z" style="fill: #4c78a8;"></path><path d="M47,66.5h88v14h-88Z" style="fill: #4c78a8;"></path><path d="M47,87.5h74v14h-74Z" style="fill: #4c78a8;"></path><path d="M40,108.5h68v14h-68Z" style="fill: #4c78a8;"></path><path d="M33,129.5h65v14h-65Z" style="fill: #4c78a8;"></path><path d="M29,150.5h71v14h-71Z" style="fill: #4c78a8;"></path><path d="M24,171.5h71v14h-71Z" style="fill: #4c78a8;"></path><path d="M20,192.5h71v14h-71Z" style="fill: #4c78a8;"></path><path d="M18,213.5h69v14h-69Z" style="fill: #4c78a8;"></path><path d="M13,234.5h65v14h-65Z" style="fill: #4c78a8;"></path><path d="M11,255.5h55v14h-55Z" style="fill: #4c78a8;"></path><path d="M7,276.5h47v14h-47Z" style="fill: #4c78a8;"></path><path d="M5,297.5h36v14h-36Z" style="fill: #4c78a8;"></path><path d="M3,318.5h24v14h-24Z" style="fill: #4c78a8;"></path><path d="M1,339.5h14v14h-14Z" style="fill: #4c78a8;"></path><path d="M1,360.5h5v14h-5Z" style="fill: #4c78a8;"></path><path d="M0,381.5h3v14h-3Z" style="fill: #4c78a8;"></path></g><g class="mark-rect role-boxMid layer_3_marks"><path d="M94.5,3.5h1v14h-1Z" style="fill: #4c78a8; opacity: 0.7;"></path><path d="M95.5,24.5h1v14h-1Z" style="fill: #4c78a8; opacity: 0.7;"></path><path d="M91.5,45.5h1v14h-1Z" style="fill: #4c78a8; opacity: 0.7;"></path><path d="M87.5,66.5h1v14h-1Z" style="fill: #4c78a8; opacity: 0.7;"></path><path d="M87.5,87.5h1v14h-1Z" style="fill: #4c78a8; opacity: 0.7;"></path><path d="M82.5,108.5h1v14h-1Z" style="fill: #4c78a8; opacity: 0.7;"></path><path d="M73.5,129.5h1v14h-1Z" style="fill: #4c78a8; opacity: 0.7;"></path><path d="M75.5,150.5h1v14h-1Z" style="fill: #4c78a8; opacity: 0.7;"></path><path d="M64.5,171.5h1v14h-1Z" style="fill: #4c78a8; opacity: 0.7;"></path><path d="M58.5,192.5h1v14h-1Z" style="fill: #4c78a8; opacity: 0.7;"></path><path d="M48.5,213.5h1v14h-1Z" style="fill: #4c78a8; opacity: 0.7;"></path><path d="M38.5,234.5h1v14h-1Z" style="fill: #4c78a8; opacity: 0.7;"></path><path d="M30.5,255.5h1v14h-1Z" style="fill: #4c78a8; opacity: 0.7;"></path><path d="M22.5,276.5h1v14h-1Z" style="fill: #4c78a8; opacity: 0.7;"></path><path d="M14.5,297.5h1v14h-1Z" style="fill: #4c78a8; opacity: 0.7;"></path><path d="M8.5,318.5h1v14h-1Z" style="fill: #4c78a8; opacity: 0.7;"></path><path d="M3.5,339.5h1v14h-1Z" style="fill: #4c78a8; opacity: 0.7;"></path><path d="M1.5,360.5h1v14h-1Z" style="fill: #4c78a8; opacity: 0.7;"></path><path d="M0.5,381.5h1v14h-1Z" style="fill: #4c78a8; opacity: 0.7;"></path></g><g class="mark-group role-axis"><g transform="translate(0.5,399.5)"><path class="background" d="M0,0h0v0h0Z" style="pointer-events: none; fill: none;"></path><g><g class="mark-rule role-axis-tick" style="pointer-events: none;"><line transform="translate(0,0)" x2="0" y2="5" style="fill: none; stroke: #888; stroke-width: 1; opacity: 1;"></line><line transform="translate(33,0)" x2="0" y2="5" style="fill: none; stroke: #888; stroke-width: 1; opacity: 1;"></line><line transform="translate(67,0)" x2="0" y2="5" style="fill: none; stroke: #888; stroke-width: 1; opacity: 1;"></line><line transform="translate(100,0)" x2="0" y2="5" style="fill: none; stroke: #888; stroke-width: 1; opacity: 1;"></line><line transform="translate(133,0)" x2="0" y2="5" style="fill: none; stroke: #888; stroke-width: 1; opacity: 1;"></line><line transform="translate(167,0)" x2="0" y2="5" style="fill: none; stroke: #888; stroke-width: 1; opacity: 1;"></line><line transform="translate(200,0)" x2="0" y2="5" style="fill: none; stroke: #888; stroke-width: 1; opacity: 1;"></line></g><g class="mark-text role-axis-label" style="pointer-events: none;"><text text-anchor="middle" transform="translate(0,16)" style="font: 10px sans-serif; fill: #000; opacity: 1;">0</text><text text-anchor="middle" transform="translate(33,16)" style="font: 10px sans-serif; fill: #000; opacity: 0;">2,000,000</text><text text-anchor="middle" transform="translate(67,16)" style="font: 10px sans-serif; fill: #000; opacity: 1;">4,000,000</text><text text-anchor="middle" transform="translate(100,16)" style="font: 10px sans-serif; fill: #000; opacity: 0;">6,000,000</text><text text-anchor="middle" transform="translate(133,16)" style="font: 10px sans-serif; fill: #000; opacity: 1;">8,000,000</text><text text-anchor="middle" transform="translate(167,16)" style="font: 10px sans-serif; fill: #000; opacity: 0;">10,000,000</text><text text-anchor="middle" transform="translate(200,16)" style="font: 10px sans-serif; fill: #000; opacity: 1;">12,000,000</text></g><g class="mark-rule role-axis-domain" style="pointer-events: none;"><line transform="translate(0,0)" x2="200" y2="0" style="fill: none; stroke: #888; stroke-width: 1; opacity: 1;"></line></g><g class="mark-text role-axis-title" style="pointer-events: none;"><text text-anchor="middle" transform="translate(100,31)" style="font: bold 11px sans-serif; fill: #000; opacity: 1;">population</text></g></g></g></g><g class="mark-group role-axis"><g transform="translate(0.5,0.5)"><path class="background" d="M0,0h0v0h0Z" style="pointer-events: none; fill: none;"></path><g><g class="mark-rule role-axis-tick" style="pointer-events: none;"><line transform="translate(0,10)" x2="-5" y2="0" style="fill: none; stroke: #888; stroke-width: 1; opacity: 1;"></line><line transform="translate(0,31)" x2="-5" y2="0" style="fill: none; stroke: #888; stroke-width: 1; opacity: 1;"></line><line transform="translate(0,52)" x2="-5" y2="0" style="fill: none; stroke: #888; stroke-width: 1; opacity: 1;"></line><line transform="translate(0,73)" x2="-5" y2="0" style="fill: none; stroke: #888; stroke-width: 1; opacity: 1;"></line><line transform="translate(0,94)" x2="-5" y2="0" style="fill: none; stroke: #888; stroke-width: 1; opacity: 1;"></line><line transform="translate(0,115)" x2="-5" y2="0" style="fill: none; stroke: #888; stroke-width: 1; opacity: 1;"></line><line transform="translate(0,136)" x2="-5" y2="0" style="fill: none; stroke: #888; stroke-width: 1; opacity: 1;"></line><line transform="translate(0,157)" x2="-5" y2="0" style="fill: none; stroke: #888; stroke-width: 1; opacity: 1;"></line><line transform="translate(0,178)" x2="-5" y2="0" style="fill: none; stroke: #888; stroke-width: 1; opacity: 1;"></line><line transform="translate(0,199)" x2="-5" y2="0" style="fill: none; stroke: #888; stroke-width: 1; opacity: 1;"></line><line transform="translate(0,220)" x2="-5" y2="0" style="fill: none; stroke: #888; stroke-width: 1; opacity: 1;"></line><line transform="translate(0,241)" x2="-5" y2="0" style="fill: none; stroke: #888; stroke-width: 1; opacity: 1;"></line><line transform="translate(0,262)" x2="-5" y2="0" style="fill: none; stroke: #888; stroke-width: 1; opacity: 1;"></line><line transform="translate(0,283)" x2="-5" y2="0" style="fill: none; stroke: #888; stroke-width: 1; opacity: 1;"></line><line transform="translate(0,304)" x2="-5" y2="0" style="fill: none; stroke: #888; stroke-width: 1; opacity: 1;"></line><line transform="translate(0,325)" x2="-5" y2="0" style="fill: none; stroke: #888; stroke-width: 1; opacity: 1;"></line><line transform="translate(0,346)" x2="-5" y2="0" style="fill: none; stroke: #888; stroke-width: 1; opacity: 1;"></line><line transform="translate(0,367)" x2="-5" y2="0" style="fill: none; stroke: #888; stroke-width: 1; opacity: 1;"></line><line transform="translate(0,388)" x2="-5" y2="0" style="fill: none; stroke: #888; stroke-width: 1; opacity: 1;"></line></g><g class="mark-text role-axis-label" style="pointer-events: none;"><text text-anchor="end" transform="translate(-7,12.5)" style="font: 10px sans-serif; fill: #000; opacity: 1;">0</text><text text-anchor="end" transform="translate(-7,33.5)" style="font: 10px sans-serif; fill: #000; opacity: 1;">5</text><text text-anchor="end" transform="translate(-7,54.5)" style="font: 10px sans-serif; fill: #000; opacity: 1;">10</text><text text-anchor="end" transform="translate(-7,75.5)" style="font: 10px sans-serif; fill: #000; opacity: 1;">15</text><text text-anchor="end" transform="translate(-7,96.5)" style="font: 10px sans-serif; fill: #000; opacity: 1;">20</text><text text-anchor="end" transform="translate(-7,117.5)" style="font: 10px sans-serif; fill: #000; opacity: 1;">25</text><text text-anchor="end" transform="translate(-7,138.5)" style="font: 10px sans-serif; fill: #000; opacity: 1;">30</text><text text-anchor="end" transform="translate(-7,159.5)" style="font: 10px sans-serif; fill: #000; opacity: 1;">35</text><text text-anchor="end" transform="translate(-7,180.5)" style="font: 10px sans-serif; fill: #000; opacity: 1;">40</text><text text-anchor="end" transform="translate(-7,201.5)" style="font: 10px sans-serif; fill: #000; opacity: 1;">45</text><text text-anchor="end" transform="translate(-7,222.5)" style="font: 10px sans-serif; fill: #000; opacity: 1;">50</text><text text-anchor="end" transform="translate(-7,243.5)" style="font: 10px sans-serif; fill: #000; opacity: 1;">55</text><text text-anchor="end" transform="translate(-7,264.5)" style="font: 10px sans-serif; fill: #000; opacity: 1;">60</text><text text-anchor="end" transform="translate(-7,285.5)" style="font: 10px sans-serif; fill: #000; opacity: 1;">65</text><text text-anchor="end" transform="translate(-7,306.5)" style="font: 10px sans-serif; fill: #000; opacity: 1;">70</text><text text-anchor="end" transform="translate(-7,327.5)" style="font: 10px sans-serif; fill: #000; opacity: 1;">75</text><text text-anchor="end" transform="translate(-7,348.5)" style="font: 10px sans-serif; fill: #000; opacity: 1;">80</text><text text-anchor="end" transform="translate(-7,369.5)" style="font: 10px sans-serif; fill: #000; opacity: 1;">85</text><text text-anchor="end" transform="translate(-7,390.5)" style="font: 10px sans-serif; fill: #000; opacity: 1;">90</text></g><g class="mark-rule role-axis-domain" style="pointer-events: none;"><line transform="translate(0,0)" x2="0" y2="399" style="fill: none; stroke: #888; stroke-width: 1; opacity: 1;"></line></g><g class="mark-text role-axis-title" style="pointer-events: none;"><text text-anchor="middle" transform="translate(-32,199.5) rotate(-90) translate(0,-2)" style="font: bold 11px sans-serif; fill: #000; opacity: 1;">age</text></g></g></g></g></g></g></g></g></svg>