<svg class="marks" width="255" height="239" viewBox="0 0 255 239" version="1.1" xmlns="http://www.w3.org/2000/svg" xmlns:xlink="http://www.w3.org/1999/xlink"><g transform="translate(50,5)"><g class="mark-group role-frame root"><g transform="translate(0,0)"><path class="background" d="M0.5,0.5h200v200h-200Z" style="fill: transparent; stroke: #ddd;"></path><g><g class="mark-group role-axis"><g transform="translate(0.5,0.5)"><path class="background" d="M0,0h0v0h0Z" style="pointer-events: none; fill: none;"></path><g><g class="mark-rule role-axis-grid" style="pointer-events: none;"><line transform="translate(0,200)" x2="200" y2="0" style="fill: none; stroke: #ddd; stroke-width: 1; stroke-dasharray: ; opacity: 1;"></line><line transform="translate(0,164)" x2="200" y2="0" style="fill: none; stroke: #ddd; stroke-width: 1; stroke-dasharray: ; opacity: 1;"></line><line transform="translate(0,127)" x2="200" y2="0" style="fill: none; stroke: #ddd; stroke-width: 1; stroke-dasharray: ; opacity: 1;"></line><line transform="translate(0,91)" x2="200" y2="0" style="fill: none; stroke: #ddd; stroke-width: 1; stroke-dasharray: ; opacity: 1;"></line><line transform="translate(0,55)" x2="200" y2="0" style="fill: none; stroke: #ddd; stroke-width: 1; stroke-dasharray: ; opacity: 1;"></line><line transform="translate(0,18)" x2="200" y2="0" style="fill: none; stroke: #ddd; stroke-width: 1; stroke-dasharray: ; opacity: 1;"></line></g></g></g></g><g class="mark-rect role-mark marks"><path d="M127.3157894736842,25.454545454545467h9.526315789473685v174.54545454545453h-9.526315789473685Z" style="fill: #4c78a8;"></path><path d="M137.8421052631579,16.363636363636346h9.52631578947367v183.63636363636365h-9.52631578947367Z" style="fill: #4c78a8;"></path><path d="M0,122.54545454545455h1v77.45454545454545h-1Z" style="fill: #4c78a8;"></path><path d="M64.15789473684211,183.27272727272728h9.52631578947367v16.72727272727272h-9.52631578947367Z" style="fill: #4c78a8;"></path><path d="M158.89473684210526,87.99999999999999h9.52631578947367v112.00000000000001h-9.52631578947367Z" style="fill: #4c78a8;"></path><path d="M74.68421052631578,180.36363636363637h9.526315789473685v19.636363636363626h-9.526315789473685Z" style="fill: #4c78a8;"></path><path d="M116.78947368421053,62.54545454545456h9.52631578947367v137.45454545454544h-9.52631578947367Z" style="fill: #4c78a8;"></path><path d="M148.36842105263156,42.54545454545456h9.5263157894737v157.45454545454544h-9.5263157894737Z" style="fill: #4c78a8;"></path><path d="M169.42105263157893,141.8181818181818h9.5263157894737v58.18181818181819h-9.5263157894737Z" style="fill: #4c78a8;"></path><path d="M53.63157894736842,190.54545454545453h9.526315789473685v9.454545454545467h-9.526315789473685Z" style="fill: #4c78a8;"></path><path d="M179.94736842105263,184h9.52631578947367v16h-9.52631578947367Z" style="fill: #4c78a8;"></path><path d="M106.26315789473684,107.27272727272728h9.5263157894737v92.72727272727272h-9.5263157894737Z" style="fill: #4c78a8;"></path><path d="M95.73684210526315,131.63636363636363h9.526315789473685v68.36363636363637h-9.526315789473685Z" style="fill: #4c78a8;"></path><path d="M85.21052631578947,169.0909090909091h9.526315789473685v30.909090909090907h-9.526315789473685Z" style="fill: #4c78a8;"></path><path d="M190.4736842105263,198.54545454545453h9.5263157894737v1.4545454545454675h-9.5263157894737Z" style="fill: #4c78a8;"></path><path d="M32.578947368421055,198.54545454545453h9.526315789473678v1.4545454545454675h-9.526315789473678Z" style="fill: #4c78a8;"></path><path d="M43.10526315789473,193.8181818181818h9.526315789473685v6.181818181818187h-9.526315789473685Z" style="fill: #4c78a8;"></path><path d="M22.052631578947366,199.63636363636363h9.526315789473685v0.36363636363637397h-9.526315789473685Z" style="fill: #4c78a8;"></path></g><g class="mark-group role-axis"><g transform="translate(0.5,200.5)"><path class="background" d="M0,0h0v0h0Z" style="pointer-events: none; fill: none;"></path><g><g class="mark-rule role-axis-tick" style="pointer-events: none;"><line transform="translate(0,0)" x2="0" y2="5" style="fill: none; stroke: #888; stroke-width: 1; opacity: 1;"></line><line transform="translate(42,0)" x2="0" y2="5" style="fill: none; stroke: #888; stroke-width: 1; opacity: 1;"></line><line transform="translate(84,0)" x2="0" y2="5" style="fill: none; stroke: #888; stroke-width: 1; opacity: 1;"></line><line transform="translate(126,0)" x2="0" y2="5" style="fill: none; stroke: #888; stroke-width: 1; opacity: 1;"></line><line transform="translate(168,0)" x2="0" y2="5" style="fill: none; stroke: #888; stroke-width: 1; opacity: 1;"></line></g><g class="mark-text role-axis-label" style="pointer-events: none;"><text text-anchor="end" transform="translate(0,7) rotate(270) translate(0,3)" style="font: 10px sans-serif; fill: #000; opacity: 1;">0</text><text text-anchor="end" transform="translate(42.10526315789473,7) rotate(270) translate(0,3)" style="font: 10px sans-serif; fill: #000; opacity: 1;">2</text><text text-anchor="end" transform="translate(84.21052631578947,7) rotate(270) translate(0,3)" style="font: 10px sans-serif; fill: #000; opacity: 1;">4</text><text text-anchor="end" transform="translate(126.3157894736842,7) rotate(270) translate(0,3)" style="font: 10px sans-serif; fill: #000; opacity: 1;">6</text><text text-anchor="end" transform="translate(168.42105263157893,7) rotate(270) translate(0,3)" style="font: 10px sans-serif; fill: #000; opacity: 1;">8</text></g><g class="mark-rule role-axis-domain" style="pointer-events: none;"><line transform="translate(0,0)" x2="200" y2="0" style="fill: none; stroke: #888; stroke-width: 1; opacity: 1;"></line></g><g class="mark-text role-axis-title" style="pointer-events: none;"><text text-anchor="middle" transform="translate(100,25.561523437500014)" style="font: bold 11px sans-serif; fill: #000; opacity: 1;">BIN(IMDB_Rating)</text></g></g></g></g><g class="mark-group role-axis"><g transform="translate(0.5,0.5)"><path class="background" d="M0,0h0v0h0Z" style="pointer-events: none; fill: none;"></path><g><g class="mark-rule role-axis-tick" style="pointer-events: none;"><line transform="translate(0,200)" x2="-5" y2="0" style="fill: none; stroke: #888; stroke-width: 1; opacity: 1;"></line><line transform="translate(0,164)" x2="-5" y2="0" style="fill: none; stroke: #888; stroke-width: 1; opacity: 1;"></line><line transform="translate(0,127)" x2="-5" y2="0" style="fill: none; stroke: #888; stroke-width: 1; opacity: 1;"></line><line transform="translate(0,91)" x2="-5" y2="0" style="fill: none; stroke: #888; stroke-width: 1; opacity: 1;"></line><line transform="translate(0,55)" x2="-5" y2="0" style="fill: none; stroke: #888; stroke-width: 1; opacity: 1;"></line><line transform="translate(0,18)" x2="-5" y2="0" style="fill: none; stroke: #888; stroke-width: 1; opacity: 1;"></line></g><g class="mark-text role-axis-label" style="pointer-events: none;"><text text-anchor="end" transform="translate(-7,203)" style="font: 10px sans-serif; fill: #000; opacity: 1;">0</text><text text-anchor="end" transform="translate(-7,166.63636363636363)" style="font: 10px sans-serif; fill: #000; opacity: 1;">100</text><text text-anchor="end" transform="translate(-7,130.27272727272725)" style="font: 10px sans-serif; fill: #000; opacity: 1;">200</text><text text-anchor="end" transform="translate(-7,93.90909090909092)" style="font: 10px sans-serif; fill: #000; opacity: 1;">300</text><text text-anchor="end" transform="translate(-7,57.54545454545453)" style="font: 10px sans-serif; fill: #000; opacity: 1;">400</text><text text-anchor="end" transform="translate(-7,21.181818181818187)" style="font: 10px sans-serif; fill: #000; opacity: 1;">500</text></g><g class="mark-rule role-axis-domain" style="pointer-events: none;"><line transform="translate(0,200)" x2="0" y2="-200" style="fill: none; stroke: #888; stroke-width: 1; opacity: 1;"></line></g><g class="mark-text role-axis-title" style="pointer-events: none;"><text text-anchor="middle" transform="translate(-32,100) rotate(-90) translate(0,-2)" style="font: bold 11px sans-serif; fill: #000; opacity: 1;">Number of Records</text></g></g></g></g></g></g></g></g></svg>