<svg class="marks" width="476" height="245" viewBox="0 0 476 245" version="1.1" xmlns="http://www.w3.org/2000/svg" xmlns:xlink="http://www.w3.org/1999/xlink"><defs><linearGradient id="gradient_0" x1="0" x2="1" y1="0" y2="0"><stop offset="0" stop-color="rgb(247, 252, 240)"></stop><stop offset="0.059602649006622516" stop-color="rgb(236, 248, 230)"></stop><stop offset="0.12582781456953643" stop-color="rgb(224, 243, 219)"></stop><stop offset="0.19205298013245034" stop-color="rgb(213, 239, 207)"></stop><stop offset="0.2582781456953642" stop-color="rgb(199, 233, 197)"></stop><stop offset="0.32450331125827814" stop-color="rgb(182, 226, 189)"></stop><stop offset="0.39072847682119205" stop-color="rgb(161, 219, 186)"></stop><stop offset="0.45695364238410596" stop-color="rgb(138, 209, 191)"></stop><stop offset="0.5231788079470199" stop-color="rgb(115, 199, 199)"></stop><stop offset="0.5894039735099338" stop-color="rgb(91, 185, 205)"></stop><stop offset="0.6556291390728477" stop-color="rgb(70, 168, 203)"></stop><stop offset="0.7218543046357616" stop-color="rgb(51, 149, 195)"></stop><stop offset="0.7880794701986755" stop-color="rgb(33, 129, 185)"></stop><stop offset="0.8543046357615894" stop-color="rgb(17, 110, 173)"></stop><stop offset="0.9205298013245033" stop-color="rgb(9, 89, 155)"></stop><stop offset="0.9867549668874173" stop-color="rgb(8, 68, 134)"></stop><stop offset="1" stop-color="rgb(8, 64, 129)"></stop></linearGradient></defs><g transform="translate(50,11)"><g class="mark-group role-frame root"><g transform="translate(0,0)"><path class="background" d="M0.5,0.5h300v200h-300Z" style="fill: none; stroke: transparent;"></path><g><g class="mark-rect role-mark marks"><path d="M195.65217391304344,200h6.52173913043481v0h-6.52173913043481Z" style="fill: rgb(191, 230, 192);"></path><path d="M221.7391304347826,200h6.521739130434781v0h-6.521739130434781Z" style="fill: rgb(182, 226, 189);"></path><path d="M0,170h0v10h0Z" style="fill: rgb(242, 250, 236);"></path><path d="M110.8695652173913,70h6.521739130434781v10h-6.521739130434781Z" style="fill: rgb(247, 252, 240);"></path><path d="M0,200h0v0h0Z" style="fill: rgb(8, 64, 129);"></path><path d="M247.82608695652175,200h6.521739130434781v0h-6.521739130434781Z" style="fill: rgb(237, 248, 231);"></path><path d="M117.39130434782608,200h6.521739130434796v0h-6.521739130434796Z" style="fill: rgb(234, 247, 228);"></path><path d="M182.60869565217394,140h6.521739130434781v10h-6.521739130434781Z" style="fill: rgb(235, 247, 229);"></path><path d="M228.26086956521738,20h6.521739130434781v10h-6.521739130434781Z" style="fill: rgb(238, 249, 232);"></path><path d="M228.26086956521738,30h6.521739130434781v10h-6.521739130434781Z" style="fill: rgb(224, 243, 219);"></path><path d="M241.30434782608694,30h6.52173913043481v10h-6.52173913043481Z" style="fill: rgb(215, 240, 210);"></path><path d="M273.9130434782609,0h6.521739130434696v10h-6.521739130434696Z" style="fill: rgb(224, 243, 219);"></path><path d="M221.7391304347826,20h6.521739130434781v10h-6.521739130434781Z" style="fill: rgb(234, 247, 228);"></path><path d="M228.26086956521738,200h6.521739130434781v0h-6.521739130434781Z" style="fill: rgb(186, 228, 190);"></path><path d="M78.26086956521739,10h6.521739130434796v10h-6.521739130434796Z" style="fill: rgb(247, 252, 240);"></path><path d="M286.95652173913044,200h6.521739130434753v0h-6.521739130434753Z" style="fill: rgb(241, 250, 234);"></path><path d="M260.86956521739125,200h6.52173913043481v0h-6.52173913043481Z" style="fill: rgb(225, 244, 220);"></path><path d="M228.26086956521738,80h6.521739130434781v9.999999999999986h-6.521739130434781Z" style="fill: rgb(236, 248, 230);"></path><path d="M176.08695652173913,130h6.52173913043481v10h-6.52173913043481Z" style="fill: rgb(227, 244, 221);"></path><path d="M202.17391304347825,200h6.521739130434781v0h-6.521739130434781Z" style="fill: rgb(201, 234, 198);"></path><path d="M0,10h0v10h0Z" style="fill: rgb(241, 250, 234);"></path><path d="M228.26086956521738,40h6.521739130434781v10h-6.521739130434781Z" style="fill: rgb(225, 244, 220);"></path><path d="M182.60869565217394,200h6.521739130434781v0h-6.521739130434781Z" style="fill: rgb(204, 235, 200);"></path><path d="M104.34782608695652,160h6.521739130434781v10h-6.521739130434781Z" style="fill: rgb(243, 251, 237);"></path><path d="M247.82608695652175,0h6.521739130434781v10h-6.521739130434781Z" style="fill: rgb(242, 250, 236);"></path><path d="M208.69565217391303,170h6.521739130434781v10h-6.521739130434781Z" style="fill: rgb(243, 251, 237);"></path><path d="M228.26086956521738,50h6.521739130434781v10h-6.521739130434781Z" style="fill: rgb(235, 247, 229);"></path><path d="M228.26086956521738,0h6.521739130434781v10h-6.521739130434781Z" style="fill: rgb(241, 250, 234);"></path><path d="M241.30434782608694,0h6.52173913043481v10h-6.52173913043481Z" style="fill: rgb(229, 245, 223);"></path><path d="M221.7391304347826,80h6.521739130434781v9.999999999999986h-6.521739130434781Z" style="fill: rgb(240, 249, 233);"></path><path d="M176.08695652173913,200h6.52173913043481v0h-6.52173913043481Z" style="fill: rgb(191, 230, 192);"></path><path d="M156.52173913043478,200h6.52173913043481v0h-6.52173913043481Z" style="fill: rgb(233, 246, 227);"></path><path d="M241.30434782608694,20h6.52173913043481v10h-6.52173913043481Z" style="fill: rgb(213, 239, 207);"></path><path d="M143.47826086956522,170h6.521739130434781v10h-6.521739130434781Z" style="fill: rgb(236, 248, 230);"></path><path d="M208.69565217391303,100h6.521739130434781v10h-6.521739130434781Z" style="fill: rgb(224, 243, 219);"></path><path d="M0,130h0v10h0Z" style="fill: rgb(242, 250, 236);"></path><path d="M215.2173913043478,150h6.521739130434781v10h-6.521739130434781Z" style="fill: rgb(247, 252, 240);"></path><path d="M234.78260869565216,200h6.521739130434781v0h-6.521739130434781Z" style="fill: rgb(188, 229, 191);"></path><path d="M189.13043478260872,89.99999999999999h6.521739130434753v10.000000000000014h-6.521739130434753Z" style="fill: rgb(242, 250, 236);"></path><path d="M104.34782608695652,50h6.521739130434781v10h-6.521739130434781Z" style="fill: rgb(247, 252, 240);"></path><path d="M241.30434782608694,200h6.52173913043481v0h-6.52173913043481Z" style="fill: rgb(150, 214, 188);"></path><path d="M221.7391304347826,10h6.521739130434781v10h-6.521739130434781Z" style="fill: rgb(242, 250, 236);"></path><path d="M260.86956521739125,0h6.52173913043481v10h-6.52173913043481Z" style="fill: rgb(204, 235, 200);"></path><path d="M182.60869565217394,70h6.521739130434781v10h-6.521739130434781Z" style="fill: rgb(242, 250, 236);"></path><path d="M273.9130434782609,10h6.521739130434696v10h-6.521739130434696Z" style="fill: rgb(240, 249, 233);"></path><path d="M202.17391304347825,20h6.521739130434781v10h-6.521739130434781Z" style="fill: rgb(241, 250, 234);"></path><path d="M208.69565217391303,200h6.521739130434781v0h-6.521739130434781Z" style="fill: rgb(138, 209, 191);"></path><path d="M163.04347826086956,200h6.521739130434781v0h-6.521739130434781Z" style="fill: rgb(227, 244, 221);"></path><path d="M143.47826086956522,160h6.521739130434781v10h-6.521739130434781Z" style="fill: rgb(234, 247, 228);"></path><path d="M176.08695652173913,50h6.52173913043481v10h-6.52173913043481Z" style="fill: rgb(246, 252, 239);"></path><path d="M182.60869565217394,50h6.521739130434781v10h-6.521739130434781Z" style="fill: rgb(247, 252, 240);"></path><path d="M260.86956521739125,10h6.52173913043481v10h-6.52173913043481Z" style="fill: rgb(222, 242, 216);"></path><path d="M234.78260869565216,0h6.521739130434781v10h-6.521739130434781Z" style="fill: rgb(240, 249, 233);"></path><path d="M163.04347826086956,150h6.521739130434781v10h-6.521739130434781Z" style="fill: rgb(236, 248, 230);"></path><path d="M221.7391304347826,60h6.521739130434781v10h-6.521739130434781Z" style="fill: rgb(235, 247, 229);"></path><path d="M241.30434782608694,70h6.52173913043481v10h-6.52173913043481Z" style="fill: rgb(242, 250, 236);"></path><path d="M208.69565217391303,120h6.521739130434781v10h-6.521739130434781Z" style="fill: rgb(235, 247, 229);"></path><path d="M208.69565217391303,30h6.521739130434781v10h-6.521739130434781Z" style="fill: rgb(234, 247, 228);"></path><path d="M182.60869565217394,89.99999999999999h6.521739130434781v10.000000000000014h-6.521739130434781Z" style="fill: rgb(235, 247, 229);"></path><path d="M182.60869565217394,30h6.521739130434781v10h-6.521739130434781Z" style="fill: rgb(247, 252, 240);"></path><path d="M110.8695652173913,10h6.521739130434781v10h-6.521739130434781Z" style="fill: rgb(247, 252, 240);"></path><path d="M104.34782608695652,150h6.521739130434781v10h-6.521739130434781Z" style="fill: rgb(246, 252, 239);"></path><path d="M163.04347826086956,120h6.521739130434781v10h-6.521739130434781Z" style="fill: rgb(238, 249, 232);"></path><path d="M150,110h6.521739130434781v10h-6.521739130434781Z" style="fill: rgb(241, 250, 234);"></path><path d="M234.78260869565216,30h6.521739130434781v10h-6.521739130434781Z" style="fill: rgb(224, 243, 219);"></path><path d="M195.65217391304344,100h6.52173913043481v10h-6.52173913043481Z" style="fill: rgb(235, 247, 229);"></path><path d="M163.04347826086956,170h6.521739130434781v10h-6.521739130434781Z" style="fill: rgb(236, 248, 230);"></path><path d="M176.08695652173913,110h6.52173913043481v10h-6.52173913043481Z" style="fill: rgb(234, 247, 228);"></path><path d="M254.34782608695653,0h6.5217391304347245v10h-6.5217391304347245Z" style="fill: rgb(221, 242, 215);"></path><path d="M136.95652173913044,200h6.521739130434781v0h-6.521739130434781Z" style="fill: rgb(238, 249, 232);"></path><path d="M221.7391304347826,70h6.521739130434781v10h-6.521739130434781Z" style="fill: rgb(233, 246, 227);"></path><path d="M202.17391304347825,110h6.521739130434781v10h-6.521739130434781Z" style="fill: rgb(234, 247, 228);"></path><path d="M267.39130434782606,10h6.52173913043481v10h-6.52173913043481Z" style="fill: rgb(241, 250, 234);"></path><path d="M254.34782608695653,30h6.5217391304347245v10h-6.5217391304347245Z" style="fill: rgb(235, 247, 229);"></path><path d="M215.2173913043478,120h6.521739130434781v10h-6.521739130434781Z" style="fill: rgb(242, 250, 236);"></path><path d="M182.60869565217394,80h6.521739130434781v9.999999999999986h-6.521739130434781Z" style="fill: rgb(243, 251, 237);"></path><path d="M234.78260869565216,10h6.521739130434781v10h-6.521739130434781Z" style="fill: rgb(236, 248, 230);"></path><path d="M241.30434782608694,50h6.52173913043481v10h-6.52173913043481Z" style="fill: rgb(235, 247, 229);"></path><path d="M189.13043478260872,120h6.521739130434753v10h-6.521739130434753Z" style="fill: rgb(237, 248, 231);"></path><path d="M234.78260869565216,20h6.521739130434781v10h-6.521739130434781Z" style="fill: rgb(223, 243, 218);"></path><path d="M215.2173913043478,60h6.521739130434781v10h-6.521739130434781Z" style="fill: rgb(237, 248, 231);"></path><path d="M130.43478260869563,80h6.52173913043481v9.999999999999986h-6.52173913043481Z" style="fill: rgb(247, 252, 240);"></path><path d="M234.78260869565216,40h6.521739130434781v10h-6.521739130434781Z" style="fill: rgb(231, 246, 225);"></path><path d="M208.69565217391303,10h6.521739130434781v10h-6.521739130434781Z" style="fill: rgb(246, 252, 239);"></path><path d="M202.17391304347825,70h6.521739130434781v10h-6.521739130434781Z" style="fill: rgb(235, 247, 229);"></path><path d="M273.9130434782609,40h6.521739130434696v10h-6.521739130434696Z" style="fill: rgb(243, 251, 237);"></path><path d="M143.47826086956522,200h6.521739130434781v0h-6.521739130434781Z" style="fill: rgb(221, 242, 215);"></path><path d="M254.34782608695653,20h6.5217391304347245v10h-6.5217391304347245Z" style="fill: rgb(227, 244, 221);"></path><path d="M215.2173913043478,30h6.521739130434781v10h-6.521739130434781Z" style="fill: rgb(238, 249, 232);"></path><path d="M234.78260869565216,60h6.521739130434781v10h-6.521739130434781Z" style="fill: rgb(231, 246, 225);"></path><path d="M221.7391304347826,40h6.521739130434781v10h-6.521739130434781Z" style="fill: rgb(224, 243, 219);"></path><path d="M169.56521739130434,130h6.521739130434781v10h-6.521739130434781Z" style="fill: rgb(236, 248, 230);"></path><path d="M182.60869565217394,60h6.521739130434781v10h-6.521739130434781Z" style="fill: rgb(242, 250, 236);"></path><path d="M228.26086956521738,60h6.521739130434781v10h-6.521739130434781Z" style="fill: rgb(231, 246, 225);"></path><path d="M241.30434782608694,10h6.52173913043481v10h-6.52173913043481Z" style="fill: rgb(213, 239, 207);"></path><path d="M260.86956521739125,130h6.52173913043481v10h-6.52173913043481Z" style="fill: rgb(247, 252, 240);"></path><path d="M202.17391304347825,50h6.521739130434781v10h-6.521739130434781Z" style="fill: rgb(236, 248, 230);"></path><path d="M228.26086956521738,70h6.521739130434781v10h-6.521739130434781Z" style="fill: rgb(229, 245, 223);"></path><path d="M169.56521739130434,170h6.521739130434781v10h-6.521739130434781Z" style="fill: rgb(237, 248, 231);"></path><path d="M260.86956521739125,20h6.52173913043481v10h-6.52173913043481Z" style="fill: rgb(233, 246, 227);"></path><path d="M208.69565217391303,40h6.521739130434781v10h-6.521739130434781Z" style="fill: rgb(230, 245, 224);"></path><path d="M221.7391304347826,110h6.521739130434781v10h-6.521739130434781Z" style="fill: rgb(235, 247, 229);"></path><path d="M202.17391304347825,30h6.521739130434781v10h-6.521739130434781Z" style="fill: rgb(240, 249, 233);"></path><path d="M110.8695652173913,200h6.521739130434781v0h-6.521739130434781Z" style="fill: rgb(230, 245, 224);"></path><path d="M247.82608695652175,20h6.521739130434781v10h-6.521739130434781Z" style="fill: rgb(240, 249, 233);"></path><path d="M189.13043478260872,60h6.521739130434753v10h-6.521739130434753Z" style="fill: rgb(245, 251, 238);"></path><path d="M189.13043478260872,200h6.521739130434753v0h-6.521739130434753Z" style="fill: rgb(222, 242, 216);"></path><path d="M143.47826086956522,50h6.521739130434781v10h-6.521739130434781Z" style="fill: rgb(247, 252, 240);"></path><path d="M163.04347826086956,10h6.521739130434781v10h-6.521739130434781Z" style="fill: rgb(247, 252, 240);"></path><path d="M143.47826086956522,150h6.521739130434781v10h-6.521739130434781Z" style="fill: rgb(237, 248, 231);"></path><path d="M176.08695652173913,140h6.52173913043481v10h-6.52173913043481Z" style="fill: rgb(219, 241, 213);"></path><path d="M156.52173913043478,170h6.52173913043481v10h-6.52173913043481Z" style="fill: rgb(238, 249, 232);"></path><path d="M208.69565217391303,50h6.521739130434781v10h-6.521739130434781Z" style="fill: rgb(230, 245, 224);"></path><path d="M182.60869565217394,110h6.521739130434781v10h-6.521739130434781Z" style="fill: rgb(228, 244, 222);"></path><path d="M208.69565217391303,20h6.521739130434781v10h-6.521739130434781Z" style="fill: rgb(240, 249, 233);"></path><path d="M254.34782608695653,200h6.5217391304347245v0h-6.5217391304347245Z" style="fill: rgb(221, 242, 215);"></path><path d="M208.69565217391303,60h6.521739130434781v10h-6.521739130434781Z" style="fill: rgb(231, 246, 225);"></path><path d="M286.95652173913044,0h6.521739130434753v10h-6.521739130434753Z" style="fill: rgb(242, 250, 236);"></path><path d="M260.86956521739125,30h6.52173913043481v10h-6.52173913043481Z" style="fill: rgb(235, 247, 229);"></path><path d="M195.65217391304344,80h6.52173913043481v9.999999999999986h-6.52173913043481Z" style="fill: rgb(234, 247, 228);"></path><path d="M169.56521739130434,100h6.521739130434781v10h-6.521739130434781Z" style="fill: rgb(246, 252, 239);"></path><path d="M189.13043478260872,10h6.521739130434753v10h-6.521739130434753Z" style="fill: rgb(247, 252, 240);"></path><path d="M169.56521739130434,200h6.521739130434781v0h-6.521739130434781Z" style="fill: rgb(222, 242, 216);"></path><path d="M176.08695652173913,150h6.52173913043481v10h-6.52173913043481Z" style="fill: rgb(235, 247, 229);"></path><path d="M208.69565217391303,80h6.521739130434781v9.999999999999986h-6.521739130434781Z" style="fill: rgb(223, 243, 218);"></path><path d="M195.65217391304344,89.99999999999999h6.52173913043481v10.000000000000014h-6.52173913043481Z" style="fill: rgb(229, 245, 223);"></path><path d="M176.08695652173913,10h6.52173913043481v10h-6.52173913043481Z" style="fill: rgb(246, 252, 239);"></path><path d="M202.17391304347825,89.99999999999999h6.521739130434781v10.000000000000014h-6.521739130434781Z" style="fill: rgb(223, 243, 218);"></path><path d="M150,200h6.521739130434781v0h-6.521739130434781Z" style="fill: rgb(228, 244, 222);"></path><path d="M260.86956521739125,40h6.52173913043481v10h-6.52173913043481Z" style="fill: rgb(242, 250, 236);"></path><path d="M247.82608695652175,10h6.521739130434781v10h-6.521739130434781Z" style="fill: rgb(237, 248, 231);"></path><path d="M208.69565217391303,70h6.521739130434781v10h-6.521739130434781Z" style="fill: rgb(214, 239, 208);"></path><path d="M150,180h6.521739130434781v10h-6.521739130434781Z" style="fill: rgb(233, 246, 227);"></path><path d="M143.47826086956522,40h6.521739130434781v10h-6.521739130434781Z" style="fill: rgb(247, 252, 240);"></path><path d="M195.65217391304344,30h6.52173913043481v10h-6.52173913043481Z" style="fill: rgb(247, 252, 240);"></path><path d="M221.7391304347826,30h6.521739130434781v10h-6.521739130434781Z" style="fill: rgb(222, 242, 216);"></path><path d="M241.30434782608694,40h6.52173913043481v10h-6.52173913043481Z" style="fill: rgb(229, 245, 223);"></path><path d="M176.08695652173913,89.99999999999999h6.52173913043481v10.000000000000014h-6.52173913043481Z" style="fill: rgb(240, 249, 233);"></path><path d="M169.56521739130434,80h6.521739130434781v9.999999999999986h-6.521739130434781Z" style="fill: rgb(246, 252, 239);"></path><path d="M195.65217391304344,40h6.52173913043481v10h-6.52173913043481Z" style="fill: rgb(242, 250, 236);"></path><path d="M189.13043478260872,130h6.521739130434753v10h-6.521739130434753Z" style="fill: rgb(240, 249, 233);"></path><path d="M195.65217391304344,70h6.52173913043481v10h-6.52173913043481Z" style="fill: rgb(229, 245, 223);"></path><path d="M221.7391304347826,0h6.521739130434781v10h-6.521739130434781Z" style="fill: rgb(246, 252, 239);"></path><path d="M215.2173913043478,200h6.521739130434781v0h-6.521739130434781Z" style="fill: rgb(222, 242, 216);"></path><path d="M176.08695652173913,70h6.52173913043481v10h-6.52173913043481Z" style="fill: rgb(243, 251, 237);"></path><path d="M176.08695652173913,170h6.52173913043481v10h-6.52173913043481Z" style="fill: rgb(223, 243, 218);"></path><path d="M123.91304347826087,200h6.521739130434753v0h-6.521739130434753Z" style="fill: rgb(245, 251, 238);"></path><path d="M130.43478260869563,200h6.52173913043481v0h-6.52173913043481Z" style="fill: rgb(235, 247, 229);"></path><path d="M208.69565217391303,0h6.521739130434781v10h-6.521739130434781Z" style="fill: rgb(246, 252, 239);"></path><path d="M182.60869565217394,180h6.521739130434781v10h-6.521739130434781Z" style="fill: rgb(241, 250, 234);"></path><path d="M254.34782608695653,10h6.5217391304347245v10h-6.5217391304347245Z" style="fill: rgb(228, 244, 222);"></path><path d="M208.69565217391303,89.99999999999999h6.521739130434781v10.000000000000014h-6.521739130434781Z" style="fill: rgb(227, 244, 221);"></path><path d="M0,70h0v10h0Z" style="fill: rgb(246, 252, 239);"></path><path d="M104.34782608695652,60h6.521739130434781v10h-6.521739130434781Z" style="fill: rgb(246, 252, 239);"></path><path d="M273.9130434782609,50h6.521739130434696v10h-6.521739130434696Z" style="fill: rgb(247, 252, 240);"></path><path d="M176.08695652173913,120h6.52173913043481v10h-6.52173913043481Z" style="fill: rgb(230, 245, 224);"></path><path d="M176.08695652173913,100h6.52173913043481v10h-6.52173913043481Z" style="fill: rgb(236, 248, 230);"></path><path d="M176.08695652173913,40h6.52173913043481v10h-6.52173913043481Z" style="fill: rgb(246, 252, 239);"></path><path d="M215.2173913043478,20h6.521739130434781v10h-6.521739130434781Z" style="fill: rgb(245, 251, 238);"></path><path d="M221.7391304347826,50h6.521739130434781v10h-6.521739130434781Z" style="fill: rgb(224, 243, 219);"></path><path d="M97.82608695652172,200h6.521739130434796v0h-6.521739130434796Z" style="fill: rgb(243, 251, 237);"></path><path d="M293.4782608695652,200h6.52173913043481v0h-6.52173913043481Z" style="fill: rgb(247, 252, 240);"></path><path d="M293.4782608695652,0h6.52173913043481v10h-6.52173913043481Z" style="fill: rgb(247, 252, 240);"></path><path d="M221.7391304347826,89.99999999999999h6.521739130434781v10.000000000000014h-6.521739130434781Z" style="fill: rgb(236, 248, 230);"></path><path d="M156.52173913043478,130h6.52173913043481v10h-6.52173913043481Z" style="fill: rgb(246, 252, 239);"></path><path d="M202.17391304347825,120h6.521739130434781v10h-6.521739130434781Z" style="fill: rgb(236, 248, 230);"></path><path d="M169.56521739130434,140h6.521739130434781v10h-6.521739130434781Z" style="fill: rgb(235, 247, 229);"></path><path d="M45.652173913043484,200h6.521739130434774v0h-6.521739130434774Z" style="fill: rgb(247, 252, 240);"></path><path d="M267.39130434782606,0h6.52173913043481v10h-6.52173913043481Z" style="fill: rgb(241, 250, 234);"></path><path d="M156.52173913043478,140h6.52173913043481v10h-6.52173913043481Z" style="fill: rgb(242, 250, 236);"></path><path d="M195.65217391304344,10h6.52173913043481v10h-6.52173913043481Z" style="fill: rgb(245, 251, 238);"></path><path d="M182.60869565217394,150h6.521739130434781v10h-6.521739130434781Z" style="fill: rgb(235, 247, 229);"></path><path d="M228.26086956521738,100h6.521739130434781v10h-6.521739130434781Z" style="fill: rgb(243, 251, 237);"></path><path d="M202.17391304347825,150h6.521739130434781v10h-6.521739130434781Z" style="fill: rgb(237, 248, 231);"></path><path d="M136.95652173913044,140h6.521739130434781v10h-6.521739130434781Z" style="fill: rgb(245, 251, 238);"></path><path d="M195.65217391304344,140h6.52173913043481v10h-6.52173913043481Z" style="fill: rgb(236, 248, 230);"></path><path d="M241.30434782608694,80h6.52173913043481v9.999999999999986h-6.52173913043481Z" style="fill: rgb(245, 251, 238);"></path><path d="M182.60869565217394,100h6.521739130434781v10h-6.521739130434781Z" style="fill: rgb(241, 250, 234);"></path><path d="M110.8695652173913,40h6.521739130434781v10h-6.521739130434781Z" style="fill: rgb(247, 252, 240);"></path><path d="M169.56521739130434,150h6.521739130434781v10h-6.521739130434781Z" style="fill: rgb(233, 246, 227);"></path><path d="M130.43478260869563,160h6.52173913043481v10h-6.52173913043481Z" style="fill: rgb(245, 251, 238);"></path><path d="M71.73913043478261,200h6.521739130434781v0h-6.521739130434781Z" style="fill: rgb(243, 251, 237);"></path><path d="M280.43478260869557,10h6.52173913043481v10h-6.52173913043481Z" style="fill: rgb(247, 252, 240);"></path><path d="M130.43478260869563,150h6.52173913043481v10h-6.52173913043481Z" style="fill: rgb(246, 252, 239);"></path><path d="M163.04347826086956,140h6.521739130434781v10h-6.521739130434781Z" style="fill: rgb(240, 249, 233);"></path><path d="M0,0h0v10h0Z" style="fill: rgb(246, 252, 239);"></path><path d="M169.56521739130434,160h6.521739130434781v10h-6.521739130434781Z" style="fill: rgb(233, 246, 227);"></path><path d="M150,160h6.521739130434781v10h-6.521739130434781Z" style="fill: rgb(234, 247, 228);"></path><path d="M156.52173913043478,160h6.52173913043481v10h-6.52173913043481Z" style="fill: rgb(242, 250, 236);"></path><path d="M123.91304347826087,170h6.521739130434753v10h-6.521739130434753Z" style="fill: rgb(245, 251, 238);"></path><path d="M176.08695652173913,80h6.52173913043481v9.999999999999986h-6.52173913043481Z" style="fill: rgb(242, 250, 236);"></path><path d="M84.78260869565217,200h6.521739130434796v0h-6.521739130434796Z" style="fill: rgb(247, 252, 240);"></path><path d="M176.08695652173913,60h6.52173913043481v10h-6.52173913043481Z" style="fill: rgb(243, 251, 237);"></path><path d="M215.2173913043478,89.99999999999999h6.521739130434781v10.000000000000014h-6.521739130434781Z" style="fill: rgb(240, 249, 233);"></path><path d="M241.30434782608694,100h6.52173913043481v10h-6.52173913043481Z" style="fill: rgb(243, 251, 237);"></path><path d="M241.30434782608694,60h6.52173913043481v10h-6.52173913043481Z" style="fill: rgb(237, 248, 231);"></path><path d="M195.65217391304344,0h6.52173913043481v10h-6.52173913043481Z" style="fill: rgb(247, 252, 240);"></path><path d="M215.2173913043478,50h6.521739130434781v10h-6.521739130434781Z" style="fill: rgb(236, 248, 230);"></path><path d="M215.2173913043478,70h6.521739130434781v10h-6.521739130434781Z" style="fill: rgb(237, 248, 231);"></path><path d="M273.9130434782609,200h6.521739130434696v0h-6.521739130434696Z" style="fill: rgb(237, 248, 231);"></path><path d="M156.52173913043478,100h6.52173913043481v10h-6.52173913043481Z" style="fill: rgb(247, 252, 240);"></path><path d="M215.2173913043478,10h6.521739130434781v10h-6.521739130434781Z" style="fill: rgb(246, 252, 239);"></path><path d="M163.04347826086956,100h6.521739130434781v10h-6.521739130434781Z" style="fill: rgb(245, 251, 238);"></path><path d="M215.2173913043478,0h6.521739130434781v10h-6.521739130434781Z" style="fill: rgb(245, 251, 238);"></path><path d="M234.78260869565216,70h6.521739130434781v10h-6.521739130434781Z" style="fill: rgb(234, 247, 228);"></path><path d="M189.13043478260872,180h6.521739130434753v10h-6.521739130434753Z" style="fill: rgb(245, 251, 238);"></path><path d="M78.26086956521739,200h6.521739130434796v0h-6.521739130434796Z" style="fill: rgb(243, 251, 237);"></path><path d="M163.04347826086956,130h6.521739130434781v10h-6.521739130434781Z" style="fill: rgb(240, 249, 233);"></path><path d="M254.34782608695653,60h6.5217391304347245v10h-6.5217391304347245Z" style="fill: rgb(241, 250, 234);"></path><path d="M202.17391304347825,80h6.521739130434781v9.999999999999986h-6.521739130434781Z" style="fill: rgb(240, 249, 233);"></path><path d="M228.26086956521738,89.99999999999999h6.521739130434781v10.000000000000014h-6.521739130434781Z" style="fill: rgb(240, 249, 233);"></path><path d="M215.2173913043478,110h6.521739130434781v10h-6.521739130434781Z" style="fill: rgb(240, 249, 233);"></path><path d="M150,170h6.521739130434781v10h-6.521739130434781Z" style="fill: rgb(234, 247, 228);"></path><path d="M189.13043478260872,30h6.521739130434753v10h-6.521739130434753Z" style="fill: rgb(246, 252, 239);"></path><path d="M267.39130434782606,20h6.52173913043481v10h-6.52173913043481Z" style="fill: rgb(247, 252, 240);"></path><path d="M182.60869565217394,120h6.521739130434781v10h-6.521739130434781Z" style="fill: rgb(240, 249, 233);"></path><path d="M169.56521739130434,0h6.521739130434781v10h-6.521739130434781Z" style="fill: rgb(247, 252, 240);"></path><path d="M0,30h0v10h0Z" style="fill: rgb(240, 249, 233);"></path><path d="M202.17391304347825,0h6.521739130434781v10h-6.521739130434781Z" style="fill: rgb(247, 252, 240);"></path><path d="M195.65217391304344,60h6.52173913043481v10h-6.52173913043481Z" style="fill: rgb(240, 249, 233);"></path><path d="M169.56521739130434,89.99999999999999h6.521739130434781v10.000000000000014h-6.521739130434781Z" style="fill: rgb(242, 250, 236);"></path><path d="M195.65217391304344,50h6.52173913043481v10h-6.52173913043481Z" style="fill: rgb(241, 250, 234);"></path><path d="M176.08695652173913,30h6.52173913043481v10h-6.52173913043481Z" style="fill: rgb(245, 251, 238);"></path><path d="M104.34782608695652,180h6.521739130434781v10h-6.521739130434781Z" style="fill: rgb(243, 251, 237);"></path><path d="M228.26086956521738,10h6.521739130434781v10h-6.521739130434781Z" style="fill: rgb(238, 249, 232);"></path><path d="M195.65217391304344,170h6.52173913043481v10h-6.52173913043481Z" style="fill: rgb(243, 251, 237);"></path><path d="M202.17391304347825,100h6.521739130434781v10h-6.521739130434781Z" style="fill: rgb(230, 245, 224);"></path><path d="M150,120h6.521739130434781v10h-6.521739130434781Z" style="fill: rgb(243, 251, 237);"></path><path d="M117.39130434782608,170h6.521739130434796v10h-6.521739130434796Z" style="fill: rgb(243, 251, 237);"></path><path d="M202.17391304347825,140h6.521739130434781v10h-6.521739130434781Z" style="fill: rgb(234, 247, 228);"></path><path d="M84.78260869565217,10h6.521739130434796v10h-6.521739130434796Z" style="fill: rgb(246, 252, 239);"></path><path d="M156.52173913043478,80h6.52173913043481v9.999999999999986h-6.52173913043481Z" style="fill: rgb(247, 252, 240);"></path><path d="M195.65217391304344,150h6.52173913043481v10h-6.52173913043481Z" style="fill: rgb(235, 247, 229);"></path><path d="M254.34782608695653,40h6.5217391304347245v10h-6.5217391304347245Z" style="fill: rgb(236, 248, 230);"></path><path d="M150,140h6.521739130434781v10h-6.521739130434781Z" style="fill: rgb(240, 249, 233);"></path><path d="M208.69565217391303,110h6.521739130434781v10h-6.521739130434781Z" style="fill: rgb(222, 242, 216);"></path><path d="M286.95652173913044,10h6.521739130434753v10h-6.521739130434753Z" style="fill: rgb(246, 252, 239);"></path><path d="M208.69565217391303,150h6.521739130434781v10h-6.521739130434781Z" style="fill: rgb(241, 250, 234);"></path><path d="M182.60869565217394,20h6.521739130434781v10h-6.521739130434781Z" style="fill: rgb(247, 252, 240);"></path><path d="M215.2173913043478,80h6.521739130434781v9.999999999999986h-6.521739130434781Z" style="fill: rgb(234, 247, 228);"></path><path d="M280.43478260869557,200h6.52173913043481v0h-6.52173913043481Z" style="fill: rgb(243, 251, 237);"></path><path d="M182.60869565217394,130h6.521739130434781v10h-6.521739130434781Z" style="fill: rgb(234, 247, 228);"></path><path d="M156.52173913043478,120h6.52173913043481v10h-6.52173913043481Z" style="fill: rgb(246, 252, 239);"></path><path d="M123.91304347826087,70h6.521739130434753v10h-6.521739130434753Z" style="fill: rgb(247, 252, 240);"></path><path d="M189.13043478260872,80h6.521739130434753v9.999999999999986h-6.521739130434753Z" style="fill: rgb(243, 251, 237);"></path><path d="M182.60869565217394,170h6.521739130434781v10h-6.521739130434781Z" style="fill: rgb(242, 250, 236);"></path><path d="M202.17391304347825,10h6.521739130434781v10h-6.521739130434781Z" style="fill: rgb(245, 251, 238);"></path><path d="M215.2173913043478,100h6.521739130434781v10h-6.521739130434781Z" style="fill: rgb(241, 250, 234);"></path><path d="M84.78260869565217,170h6.521739130434796v10h-6.521739130434796Z" style="fill: rgb(243, 251, 237);"></path><path d="M136.95652173913044,120h6.521739130434781v10h-6.521739130434781Z" style="fill: rgb(246, 252, 239);"></path><path d="M273.9130434782609,20h6.521739130434696v10h-6.521739130434696Z" style="fill: rgb(245, 251, 238);"></path><path d="M117.39130434782608,160h6.521739130434796v10h-6.521739130434796Z" style="fill: rgb(246, 252, 239);"></path><path d="M130.43478260869563,170h6.52173913043481v10h-6.52173913043481Z" style="fill: rgb(245, 251, 238);"></path><path d="M293.4782608695652,20h6.52173913043481v10h-6.52173913043481Z" style="fill: rgb(246, 252, 239);"></path><path d="M280.43478260869557,0h6.52173913043481v10h-6.52173913043481Z" style="fill: rgb(247, 252, 240);"></path><path d="M234.78260869565216,50h6.521739130434781v10h-6.521739130434781Z" style="fill: rgb(233, 246, 227);"></path><path d="M280.43478260869557,20h6.52173913043481v10h-6.52173913043481Z" style="fill: rgb(246, 252, 239);"></path><path d="M176.08695652173913,0h6.52173913043481v10h-6.52173913043481Z" style="fill: rgb(247, 252, 240);"></path><path d="M150,150h6.521739130434781v10h-6.521739130434781Z" style="fill: rgb(243, 251, 237);"></path><path d="M176.08695652173913,160h6.52173913043481v10h-6.52173913043481Z" style="fill: rgb(235, 247, 229);"></path><path d="M156.52173913043478,10h6.52173913043481v10h-6.52173913043481Z" style="fill: rgb(247, 252, 240);"></path><path d="M156.52173913043478,190h6.52173913043481v10h-6.52173913043481Z" style="fill: rgb(247, 252, 240);"></path><path d="M143.47826086956522,140h6.521739130434781v10h-6.521739130434781Z" style="fill: rgb(243, 251, 237);"></path><path d="M104.34782608695652,170h6.521739130434781v10h-6.521739130434781Z" style="fill: rgb(245, 251, 238);"></path><path d="M104.34782608695652,200h6.521739130434781v0h-6.521739130434781Z" style="fill: rgb(243, 251, 237);"></path><path d="M163.04347826086956,110h6.521739130434781v10h-6.521739130434781Z" style="fill: rgb(245, 251, 238);"></path><path d="M169.56521739130434,120h6.521739130434781v10h-6.521739130434781Z" style="fill: rgb(240, 249, 233);"></path><path d="M189.13043478260872,100h6.521739130434753v10h-6.521739130434753Z" style="fill: rgb(238, 249, 232);"></path><path d="M247.82608695652175,40h6.521739130434781v10h-6.521739130434781Z" style="fill: rgb(245, 251, 238);"></path><path d="M136.95652173913044,130h6.521739130434781v10h-6.521739130434781Z" style="fill: rgb(247, 252, 240);"></path><path d="M91.30434782608697,60h6.521739130434753v10h-6.521739130434753Z" style="fill: rgb(246, 252, 239);"></path><path d="M208.69565217391303,130h6.521739130434781v10h-6.521739130434781Z" style="fill: rgb(236, 248, 230);"></path><path d="M202.17391304347825,60h6.521739130434781v10h-6.521739130434781Z" style="fill: rgb(235, 247, 229);"></path><path d="M136.95652173913044,170h6.521739130434781v10h-6.521739130434781Z" style="fill: rgb(237, 248, 231);"></path><path d="M195.65217391304344,120h6.52173913043481v10h-6.52173913043481Z" style="fill: rgb(236, 248, 230);"></path><path d="M195.65217391304344,160h6.52173913043481v10h-6.52173913043481Z" style="fill: rgb(233, 246, 227);"></path><path d="M0,60h0v10h0Z" style="fill: rgb(246, 252, 239);"></path><path d="M143.47826086956522,120h6.521739130434781v10h-6.521739130434781Z" style="fill: rgb(242, 250, 236);"></path><path d="M267.39130434782606,200h6.52173913043481v0h-6.52173913043481Z" style="fill: rgb(245, 251, 238);"></path><path d="M143.47826086956522,130h6.521739130434781v10h-6.521739130434781Z" style="fill: rgb(246, 252, 239);"></path><path d="M202.17391304347825,160h6.521739130434781v10h-6.521739130434781Z" style="fill: rgb(246, 252, 239);"></path><path d="M195.65217391304344,130h6.52173913043481v10h-6.52173913043481Z" style="fill: rgb(236, 248, 230);"></path><path d="M182.60869565217394,160h6.521739130434781v10h-6.521739130434781Z" style="fill: rgb(233, 246, 227);"></path><path d="M254.34782608695653,70h6.5217391304347245v10h-6.5217391304347245Z" style="fill: rgb(243, 251, 237);"></path><path d="M91.30434782608697,200h6.521739130434753v0h-6.521739130434753Z" style="fill: rgb(246, 252, 239);"></path><path d="M241.30434782608694,140h6.52173913043481v10h-6.52173913043481Z" style="fill: rgb(247, 252, 240);"></path><path d="M163.04347826086956,190h6.521739130434781v10h-6.521739130434781Z" style="fill: rgb(246, 252, 239);"></path><path d="M260.86956521739125,170h6.52173913043481v10h-6.52173913043481Z" style="fill: rgb(247, 252, 240);"></path><path d="M221.7391304347826,150h6.521739130434781v10h-6.521739130434781Z" style="fill: rgb(246, 252, 239);"></path><path d="M143.47826086956522,100h6.521739130434781v10h-6.521739130434781Z" style="fill: rgb(247, 252, 240);"></path><path d="M202.17391304347825,40h6.521739130434781v10h-6.521739130434781Z" style="fill: rgb(246, 252, 239);"></path><path d="M71.73913043478261,190h6.521739130434781v10h-6.521739130434781Z" style="fill: rgb(242, 250, 236);"></path><path d="M273.9130434782609,30h6.521739130434696v10h-6.521739130434696Z" style="fill: rgb(247, 252, 240);"></path><path d="M195.65217391304344,110h6.52173913043481v10h-6.52173913043481Z" style="fill: rgb(234, 247, 228);"></path><path d="M189.13043478260872,70h6.521739130434753v10h-6.521739130434753Z" style="fill: rgb(245, 251, 238);"></path><path d="M143.47826086956522,89.99999999999999h6.521739130434781v10.000000000000014h-6.521739130434781Z" style="fill: rgb(247, 252, 240);"></path><path d="M202.17391304347825,130h6.521739130434781v10h-6.521739130434781Z" style="fill: rgb(243, 251, 237);"></path><path d="M234.78260869565216,100h6.521739130434781v10h-6.521739130434781Z" style="fill: rgb(246, 252, 239);"></path><path d="M150,70h6.521739130434781v10h-6.521739130434781Z" style="fill: rgb(247, 252, 240);"></path><path d="M221.7391304347826,100h6.521739130434781v10h-6.521739130434781Z" style="fill: rgb(236, 248, 230);"></path><path d="M241.30434782608694,120h6.52173913043481v10h-6.52173913043481Z" style="fill: rgb(247, 252, 240);"></path><path d="M241.30434782608694,89.99999999999999h6.52173913043481v10.000000000000014h-6.52173913043481Z" style="fill: rgb(243, 251, 237);"></path><path d="M267.39130434782606,30h6.52173913043481v10h-6.52173913043481Z" style="fill: rgb(245, 251, 238);"></path><path d="M110.8695652173913,160h6.521739130434781v10h-6.521739130434781Z" style="fill: rgb(245, 251, 238);"></path><path d="M169.56521739130434,180h6.521739130434781v10h-6.521739130434781Z" style="fill: rgb(242, 250, 236);"></path><path d="M39.130434782608695,200h6.5217391304347885v0h-6.5217391304347885Z" style="fill: rgb(247, 252, 240);"></path><path d="M0,20h0v10h0Z" style="fill: rgb(243, 251, 237);"></path><path d="M176.08695652173913,180h6.52173913043481v10h-6.52173913043481Z" style="fill: rgb(243, 251, 237);"></path><path d="M65.21739130434781,200h6.521739130434796v0h-6.521739130434796Z" style="fill: rgb(247, 252, 240);"></path><path d="M123.91304347826087,180h6.521739130434753v10h-6.521739130434753Z" style="fill: rgb(247, 252, 240);"></path><path d="M260.86956521739125,50h6.52173913043481v10h-6.52173913043481Z" style="fill: rgb(246, 252, 239);"></path><path d="M150,190h6.521739130434781v10h-6.521739130434781Z" style="fill: rgb(243, 251, 237);"></path><path d="M234.78260869565216,89.99999999999999h6.521739130434781v10.000000000000014h-6.521739130434781Z" style="fill: rgb(245, 251, 238);"></path><path d="M260.86956521739125,70h6.52173913043481v10h-6.52173913043481Z" style="fill: rgb(247, 252, 240);"></path><path d="M169.56521739130434,40h6.521739130434781v10h-6.521739130434781Z" style="fill: rgb(247, 252, 240);"></path><path d="M143.47826086956522,180h6.521739130434781v10h-6.521739130434781Z" style="fill: rgb(237, 248, 231);"></path><path d="M169.56521739130434,110h6.521739130434781v10h-6.521739130434781Z" style="fill: rgb(241, 250, 234);"></path><path d="M150,130h6.521739130434781v10h-6.521739130434781Z" style="fill: rgb(245, 251, 238);"></path><path d="M247.82608695652175,60h6.521739130434781v10h-6.521739130434781Z" style="fill: rgb(247, 252, 240);"></path><path d="M136.95652173913044,160h6.521739130434781v10h-6.521739130434781Z" style="fill: rgb(246, 252, 239);"></path><path d="M130.43478260869563,180h6.52173913043481v10h-6.52173913043481Z" style="fill: rgb(241, 250, 234);"></path><path d="M254.34782608695653,160h6.5217391304347245v10h-6.5217391304347245Z" style="fill: rgb(247, 252, 240);"></path><path d="M123.91304347826087,150h6.521739130434753v10h-6.521739130434753Z" style="fill: rgb(246, 252, 239);"></path><path d="M247.82608695652175,30h6.521739130434781v10h-6.521739130434781Z" style="fill: rgb(243, 251, 237);"></path><path d="M136.95652173913044,180h6.521739130434781v10h-6.521739130434781Z" style="fill: rgb(242, 250, 236);"></path><path d="M202.17391304347825,170h6.521739130434781v10h-6.521739130434781Z" style="fill: rgb(246, 252, 239);"></path><path d="M0,40h0v10h0Z" style="fill: rgb(241, 250, 234);"></path><path d="M84.78260869565217,70h6.521739130434796v10h-6.521739130434796Z" style="fill: rgb(247, 252, 240);"></path><path d="M254.34782608695653,130h6.5217391304347245v10h-6.5217391304347245Z" style="fill: rgb(247, 252, 240);"></path><path d="M110.8695652173913,170h6.521739130434781v10h-6.521739130434781Z" style="fill: rgb(246, 252, 239);"></path><path d="M0,150h0v10h0Z" style="fill: rgb(247, 252, 240);"></path><path d="M0,89.99999999999999h0v10.000000000000014h0Z" style="fill: rgb(245, 251, 238);"></path><path d="M182.60869565217394,0h6.521739130434781v10h-6.521739130434781Z" style="fill: rgb(247, 252, 240);"></path><path d="M117.39130434782608,140h6.521739130434796v10h-6.521739130434796Z" style="fill: rgb(247, 252, 240);"></path><path d="M156.52173913043478,180h6.52173913043481v10h-6.52173913043481Z" style="fill: rgb(247, 252, 240);"></path><path d="M221.7391304347826,130h6.521739130434781v10h-6.521739130434781Z" style="fill: rgb(245, 251, 238);"></path><path d="M65.21739130434781,170h6.521739130434796v10h-6.521739130434796Z" style="fill: rgb(247, 252, 240);"></path><path d="M228.26086956521738,130h6.521739130434781v10h-6.521739130434781Z" style="fill: rgb(247, 252, 240);"></path><path d="M215.2173913043478,40h6.521739130434781v10h-6.521739130434781Z" style="fill: rgb(245, 251, 238);"></path><path d="M130.43478260869563,190h6.52173913043481v10h-6.52173913043481Z" style="fill: rgb(246, 252, 239);"></path><path d="M247.82608695652175,70h6.521739130434781v10h-6.521739130434781Z" style="fill: rgb(243, 251, 237);"></path><path d="M136.95652173913044,190h6.521739130434781v10h-6.521739130434781Z" style="fill: rgb(247, 252, 240);"></path><path d="M52.17391304347826,190h6.521739130434781v10h-6.521739130434781Z" style="fill: rgb(246, 252, 239);"></path><path d="M84.78260869565217,180h6.521739130434796v10h-6.521739130434796Z" style="fill: rgb(245, 251, 238);"></path><path d="M228.26086956521738,140h6.521739130434781v10h-6.521739130434781Z" style="fill: rgb(245, 251, 238);"></path><path d="M0,50h0v10h0Z" style="fill: rgb(246, 252, 239);"></path><path d="M189.13043478260872,160h6.521739130434753v10h-6.521739130434753Z" style="fill: rgb(245, 251, 238);"></path><path d="M123.91304347826087,140h6.521739130434753v10h-6.521739130434753Z" style="fill: rgb(247, 252, 240);"></path><path d="M110.8695652173913,150h6.521739130434781v10h-6.521739130434781Z" style="fill: rgb(245, 251, 238);"></path><path d="M189.13043478260872,140h6.521739130434753v10h-6.521739130434753Z" style="fill: rgb(246, 252, 239);"></path><path d="M169.56521739130434,190h6.521739130434781v10h-6.521739130434781Z" style="fill: rgb(246, 252, 239);"></path><path d="M169.56521739130434,30h6.521739130434781v10h-6.521739130434781Z" style="fill: rgb(247, 252, 240);"></path><path d="M189.13043478260872,110h6.521739130434753v10h-6.521739130434753Z" style="fill: rgb(243, 251, 237);"></path><path d="M97.82608695652172,190h6.521739130434796v10h-6.521739130434796Z" style="fill: rgb(247, 252, 240);"></path><path d="M221.7391304347826,170h6.521739130434781v10h-6.521739130434781Z" style="fill: rgb(245, 251, 238);"></path><path d="M163.04347826086956,70h6.521739130434781v10h-6.521739130434781Z" style="fill: rgb(246, 252, 239);"></path><path d="M208.69565217391303,140h6.521739130434781v10h-6.521739130434781Z" style="fill: rgb(240, 249, 233);"></path><path d="M163.04347826086956,160h6.521739130434781v10h-6.521739130434781Z" style="fill: rgb(242, 250, 236);"></path><path d="M143.47826086956522,190h6.521739130434781v10h-6.521739130434781Z" style="fill: rgb(247, 252, 240);"></path><path d="M182.60869565217394,40h6.521739130434781v10h-6.521739130434781Z" style="fill: rgb(246, 252, 239);"></path><path d="M195.65217391304344,180h6.52173913043481v10h-6.52173913043481Z" style="fill: rgb(246, 252, 239);"></path><path d="M286.95652173913044,30h6.521739130434753v10h-6.521739130434753Z" style="fill: rgb(247, 252, 240);"></path><path d="M52.17391304347826,180h6.521739130434781v10h-6.521739130434781Z" style="fill: rgb(247, 252, 240);"></path><path d="M0,120h0v10h0Z" style="fill: rgb(246, 252, 239);"></path><path d="M163.04347826086956,180h6.521739130434781v10h-6.521739130434781Z" style="fill: rgb(240, 249, 233);"></path><path d="M150,20h6.521739130434781v10h-6.521739130434781Z" style="fill: rgb(247, 252, 240);"></path><path d="M71.73913043478261,180h6.521739130434781v10h-6.521739130434781Z" style="fill: rgb(247, 252, 240);"></path><path d="M267.39130434782606,40h6.52173913043481v10h-6.52173913043481Z" style="fill: rgb(246, 252, 239);"></path><path d="M65.21739130434781,180h6.521739130434796v10h-6.521739130434796Z" style="fill: rgb(246, 252, 239);"></path><path d="M260.86956521739125,110h6.52173913043481v10h-6.52173913043481Z" style="fill: rgb(247, 252, 240);"></path><path d="M0,140h0v10h0Z" style="fill: rgb(241, 250, 234);"></path><path d="M221.7391304347826,120h6.521739130434781v10h-6.521739130434781Z" style="fill: rgb(240, 249, 233);"></path><path d="M117.39130434782608,60h6.521739130434796v10h-6.521739130434796Z" style="fill: rgb(247, 252, 240);"></path><path d="M117.39130434782608,10h6.521739130434796v10h-6.521739130434796Z" style="fill: rgb(247, 252, 240);"></path><path d="M130.43478260869563,120h6.52173913043481v10h-6.52173913043481Z" style="fill: rgb(247, 252, 240);"></path><path d="M234.78260869565216,120h6.521739130434781v10h-6.521739130434781Z" style="fill: rgb(247, 252, 240);"></path><path d="M247.82608695652175,50h6.521739130434781v10h-6.521739130434781Z" style="fill: rgb(247, 252, 240);"></path><path d="M0,80h0v9.999999999999986h0Z" style="fill: rgb(246, 252, 239);"></path><path d="M228.26086956521738,110h6.521739130434781v10h-6.521739130434781Z" style="fill: rgb(245, 251, 238);"></path><path d="M117.39130434782608,180h6.521739130434796v10h-6.521739130434796Z" style="fill: rgb(242, 250, 236);"></path><path d="M163.04347826086956,89.99999999999999h6.521739130434781v10.000000000000014h-6.521739130434781Z" style="fill: rgb(247, 252, 240);"></path><path d="M228.26086956521738,120h6.521739130434781v10h-6.521739130434781Z" style="fill: rgb(242, 250, 236);"></path><path d="M234.78260869565216,110h6.521739130434781v10h-6.521739130434781Z" style="fill: rgb(247, 252, 240);"></path><path d="M110.8695652173913,190h6.521739130434781v10h-6.521739130434781Z" style="fill: rgb(245, 251, 238);"></path><path d="M234.78260869565216,140h6.521739130434781v10h-6.521739130434781Z" style="fill: rgb(247, 252, 240);"></path><path d="M247.82608695652175,120h6.521739130434781v10h-6.521739130434781Z" style="fill: rgb(246, 252, 239);"></path><path d="M234.78260869565216,150h6.521739130434781v10h-6.521739130434781Z" style="fill: rgb(247, 252, 240);"></path><path d="M143.47826086956522,80h6.521739130434781v9.999999999999986h-6.521739130434781Z" style="fill: rgb(247, 252, 240);"></path><path d="M0,100h0v10h0Z" style="fill: rgb(246, 252, 239);"></path><path d="M123.91304347826087,160h6.521739130434753v10h-6.521739130434753Z" style="fill: rgb(246, 252, 239);"></path><path d="M71.73913043478261,170h6.521739130434781v10h-6.521739130434781Z" style="fill: rgb(247, 252, 240);"></path><path d="M97.82608695652172,130h6.521739130434796v10h-6.521739130434796Z" style="fill: rgb(247, 252, 240);"></path><path d="M123.91304347826087,190h6.521739130434753v10h-6.521739130434753Z" style="fill: rgb(247, 252, 240);"></path><path d="M97.82608695652172,140h6.521739130434796v10h-6.521739130434796Z" style="fill: rgb(247, 252, 240);"></path><path d="M234.78260869565216,130h6.521739130434781v10h-6.521739130434781Z" style="fill: rgb(246, 252, 239);"></path><path d="M0,160h0v10h0Z" style="fill: rgb(247, 252, 240);"></path><path d="M156.52173913043478,150h6.52173913043481v10h-6.52173913043481Z" style="fill: rgb(243, 251, 237);"></path><path d="M260.86956521739125,89.99999999999999h6.52173913043481v10.000000000000014h-6.52173913043481Z" style="fill: rgb(247, 252, 240);"></path><path d="M202.17391304347825,180h6.521739130434781v10h-6.521739130434781Z" style="fill: rgb(247, 252, 240);"></path><path d="M156.52173913043478,60h6.52173913043481v10h-6.52173913043481Z" style="fill: rgb(247, 252, 240);"></path><path d="M71.73913043478261,150h6.521739130434781v10h-6.521739130434781Z" style="fill: rgb(247, 252, 240);"></path><path d="M221.7391304347826,140h6.521739130434781v10h-6.521739130434781Z" style="fill: rgb(247, 252, 240);"></path><path d="M215.2173913043478,130h6.521739130434781v10h-6.521739130434781Z" style="fill: rgb(246, 252, 239);"></path><path d="M176.08695652173913,20h6.52173913043481v10h-6.52173913043481Z" style="fill: rgb(247, 252, 240);"></path><path d="M0,180h0v10h0Z" style="fill: rgb(246, 252, 239);"></path><path d="M84.78260869565217,190h6.521739130434796v10h-6.521739130434796Z" style="fill: rgb(246, 252, 239);"></path><path d="M130.43478260869563,110h6.52173913043481v10h-6.52173913043481Z" style="fill: rgb(247, 252, 240);"></path><path d="M71.73913043478261,120h6.521739130434781v10h-6.521739130434781Z" style="fill: rgb(247, 252, 240);"></path><path d="M241.30434782608694,110h6.52173913043481v10h-6.52173913043481Z" style="fill: rgb(247, 252, 240);"></path><path d="M241.30434782608694,130h6.52173913043481v10h-6.52173913043481Z" style="fill: rgb(247, 252, 240);"></path><path d="M247.82608695652175,100h6.521739130434781v10h-6.521739130434781Z" style="fill: rgb(247, 252, 240);"></path><path d="M117.39130434782608,150h6.521739130434796v10h-6.521739130434796Z" style="fill: rgb(247, 252, 240);"></path><path d="M91.30434782608697,30h6.521739130434753v10h-6.521739130434753Z" style="fill: rgb(247, 252, 240);"></path><path d="M84.78260869565217,160h6.521739130434796v10h-6.521739130434796Z" style="fill: rgb(246, 252, 239);"></path><path d="M130.43478260869563,140h6.52173913043481v10h-6.52173913043481Z" style="fill: rgb(247, 252, 240);"></path><path d="M260.86956521739125,60h6.52173913043481v10h-6.52173913043481Z" style="fill: rgb(247, 252, 240);"></path><path d="M0,110h0v10h0Z" style="fill: rgb(247, 252, 240);"></path><path d="M254.34782608695653,89.99999999999999h6.5217391304347245v10.000000000000014h-6.5217391304347245Z" style="fill: rgb(247, 252, 240);"></path><path d="M189.13043478260872,170h6.521739130434753v10h-6.521739130434753Z" style="fill: rgb(247, 252, 240);"></path><path d="M182.60869565217394,10h6.521739130434781v10h-6.521739130434781Z" style="fill: rgb(247, 252, 240);"></path><path d="M117.39130434782608,190h6.521739130434796v10h-6.521739130434796Z" style="fill: rgb(247, 252, 240);"></path><path d="M254.34782608695653,50h6.5217391304347245v10h-6.5217391304347245Z" style="fill: rgb(247, 252, 240);"></path><path d="M91.30434782608697,180h6.521739130434753v10h-6.521739130434753Z" style="fill: rgb(247, 252, 240);"></path><path d="M110.8695652173913,180h6.521739130434781v10h-6.521739130434781Z" style="fill: rgb(246, 252, 239);"></path><path d="M234.78260869565216,80h6.521739130434781v9.999999999999986h-6.521739130434781Z" style="fill: rgb(247, 252, 240);"></path><path d="M215.2173913043478,140h6.521739130434781v10h-6.521739130434781Z" style="fill: rgb(247, 252, 240);"></path><path d="M280.43478260869557,30h6.52173913043481v10h-6.52173913043481Z" style="fill: rgb(247, 252, 240);"></path><path d="M163.04347826086956,60h6.521739130434781v10h-6.521739130434781Z" style="fill: rgb(247, 252, 240);"></path><path d="M208.69565217391303,160h6.521739130434781v10h-6.521739130434781Z" style="fill: rgb(247, 252, 240);"></path><path d="M143.47826086956522,10h6.521739130434781v10h-6.521739130434781Z" style="fill: rgb(247, 252, 240);"></path><path d="M136.95652173913044,150h6.521739130434781v10h-6.521739130434781Z" style="fill: rgb(247, 252, 240);"></path><path d="M189.13043478260872,20h6.521739130434753v10h-6.521739130434753Z" style="fill: rgb(247, 252, 240);"></path><path d="M254.34782608695653,170h6.5217391304347245v10h-6.5217391304347245Z" style="fill: rgb(247, 252, 240);"></path></g><g class="mark-group role-legend"><g transform="translate(318,0)"><path class="background" d="M0,0h103v49h-103Z" style="pointer-events: none; fill: none;"></path><g><g class="mark-group role-legend-entry"><g transform="translate(0,16)"><path class="background" d="M0,0h0v0h0Z" style="pointer-events: none; fill: none;"></path><g><g class="mark-rect role-legend-gradient" style="pointer-events: none;"><path d="M0,0h100v20h-100Z" style="fill: url(#gradient_0); stroke: #ddd; stroke-width: 0; opacity: 1;"></path></g><g class="mark-text role-legend-label" style="pointer-events: none;"><text text-anchor="start" transform="translate(0,31)" style="font: 10px sans-serif; fill: #000; opacity: 1;">1</text><text text-anchor="end" transform="translate(100,31)" style="font: 10px sans-serif; fill: #000; opacity: 1;">152</text></g></g></g></g><g class="mark-text role-legend-title" style="pointer-events: none;"><text text-anchor="start" transform="translate(0,10)" style="font: bold 11px sans-serif; fill: #000; opacity: 1;">Number of Records</text></g></g></g></g><g class="mark-group role-axis"><g transform="translate(0.5,200.5)"><path class="background" d="M0,0h0v0h0Z" style="pointer-events: none; fill: none;"></path><g><g class="mark-rule role-axis-tick" style="pointer-events: none;"><line transform="translate(0,0)" x2="0" y2="5" style="fill: none; stroke: #888; stroke-width: 1; opacity: 1;"></line><line transform="translate(33,0)" x2="0" y2="5" style="fill: none; stroke: #888; stroke-width: 1; opacity: 1;"></line><line transform="translate(65,0)" x2="0" y2="5" style="fill: none; stroke: #888; stroke-width: 1; opacity: 1;"></line><line transform="translate(98,0)" x2="0" y2="5" style="fill: none; stroke: #888; stroke-width: 1; opacity: 1;"></line><line transform="translate(130,0)" x2="0" y2="5" style="fill: none; stroke: #888; stroke-width: 1; opacity: 1;"></line><line transform="translate(163,0)" x2="0" y2="5" style="fill: none; stroke: #888; stroke-width: 1; opacity: 1;"></line><line transform="translate(196,0)" x2="0" y2="5" style="fill: none; stroke: #888; stroke-width: 1; opacity: 1;"></line><line transform="translate(228,0)" x2="0" y2="5" style="fill: none; stroke: #888; stroke-width: 1; opacity: 1;"></line><line transform="translate(261,0)" x2="0" y2="5" style="fill: none; stroke: #888; stroke-width: 1; opacity: 1;"></line><line transform="translate(293,0)" x2="0" y2="5" style="fill: none; stroke: #888; stroke-width: 1; opacity: 1;"></line></g><g class="mark-text role-axis-label" style="pointer-events: none;"><text text-anchor="end" transform="translate(0,7) rotate(270) translate(0,3)" style="font: 10px sans-serif; fill: #000; opacity: 1;">0</text><text text-anchor="end" transform="translate(32.60869565217391,7) rotate(270) translate(0,3)" style="font: 10px sans-serif; fill: #000; opacity: 1;">1</text><text text-anchor="end" transform="translate(65.21739130434781,7) rotate(270) translate(0,3)" style="font: 10px sans-serif; fill: #000; opacity: 1;">2</text><text text-anchor="end" transform="translate(97.82608695652172,7) rotate(270) translate(0,3)" style="font: 10px sans-serif; fill: #000; opacity: 1;">3</text><text text-anchor="end" transform="translate(130.43478260869563,7) rotate(270) translate(0,3)" style="font: 10px sans-serif; fill: #000; opacity: 1;">4</text><text text-anchor="end" transform="translate(163.04347826086956,7) rotate(270) translate(0,3)" style="font: 10px sans-serif; fill: #000; opacity: 1;">5</text><text text-anchor="end" transform="translate(195.65217391304344,7) rotate(270) translate(0,3)" style="font: 10px sans-serif; fill: #000; opacity: 1;">6</text><text text-anchor="end" transform="translate(228.26086956521738,7) rotate(270) translate(0,3)" style="font: 10px sans-serif; fill: #000; opacity: 1;">7</text><text text-anchor="end" transform="translate(260.86956521739125,7) rotate(270) translate(0,3)" style="font: 10px sans-serif; fill: #000; opacity: 1;">8</text><text text-anchor="end" transform="translate(293.4782608695652,7) rotate(270) translate(0,3)" style="font: 10px sans-serif; fill: #000; opacity: 1;">9</text></g><g class="mark-rule role-axis-domain" style="pointer-events: none;"><line transform="translate(0,0)" x2="300" y2="0" style="fill: none; stroke: #888; stroke-width: 1; opacity: 1;"></line></g><g class="mark-text role-axis-title" style="pointer-events: none;"><text text-anchor="middle" transform="translate(150,25.5615234375)" style="font: bold 11px sans-serif; fill: #000; opacity: 1;">BIN(IMDB_Rating)</text></g></g></g></g><g class="mark-group role-axis"><g transform="translate(0.5,0.5)"><path class="background" d="M0,0h0v0h0Z" style="pointer-events: none; fill: none;"></path><g><g class="mark-rule role-axis-tick" style="pointer-events: none;"><line transform="translate(0,200)" x2="-5" y2="0" style="fill: none; stroke: #888; stroke-width: 1; opacity: 1;"></line><line transform="translate(0,160)" x2="-5" y2="0" style="fill: none; stroke: #888; stroke-width: 1; opacity: 1;"></line><line transform="translate(0,120)" x2="-5" y2="0" style="fill: none; stroke: #888; stroke-width: 1; opacity: 1;"></line><line transform="translate(0,80)" x2="-5" y2="0" style="fill: none; stroke: #888; stroke-width: 1; opacity: 1;"></line><line transform="translate(0,40)" x2="-5" y2="0" style="fill: none; stroke: #888; stroke-width: 1; opacity: 1;"></line><line transform="translate(0,0)" x2="-5" y2="0" style="fill: none; stroke: #888; stroke-width: 1; opacity: 1;"></line></g><g class="mark-text role-axis-label" style="pointer-events: none;"><text text-anchor="end" transform="translate(-7,203)" style="font: 10px sans-serif; fill: #000; opacity: 1;">0</text><text text-anchor="end" transform="translate(-7,163)" style="font: 10px sans-serif; fill: #000; opacity: 1;">20</text><text text-anchor="end" transform="translate(-7,123)" style="font: 10px sans-serif; fill: #000; opacity: 1;">40</text><text text-anchor="end" transform="translate(-7,83)" style="font: 10px sans-serif; fill: #000; opacity: 1;">60</text><text text-anchor="end" transform="translate(-7,43)" style="font: 10px sans-serif; fill: #000; opacity: 1;">80</text><text text-anchor="end" transform="translate(-7,3)" style="font: 10px sans-serif; fill: #000; opacity: 1;">100</text></g><g class="mark-rule role-axis-domain" style="pointer-events: none;"><line transform="translate(0,200)" x2="0" y2="-200" style="fill: none; stroke: #888; stroke-width: 1; opacity: 1;"></line></g><g class="mark-text role-axis-title" style="pointer-events: none;"><text text-anchor="middle" transform="translate(-32,100) rotate(-90) translate(0,-2)" style="font: bold 11px sans-serif; fill: #000; opacity: 1;">BIN(Rotten_Tomatoes_Rating)</text></g></g></g></g></g></g></g></g></svg>