<svg class="marks" width="377" height="251" viewBox="0 0 377 251" version="1.1" xmlns="http://www.w3.org/2000/svg" xmlns:xlink="http://www.w3.org/1999/xlink"><g transform="translate(50,11)"><g class="mark-group role-frame root"><g transform="translate(0,0)"><path class="background" d="M0.5,0.5h200v200h-200Z" style="fill: transparent; stroke: #ddd;"></path><g><g class="mark-symbol role-mark marks"><path transform="translate(130,200)" d="M9.5,0A9.5,9.5,0,1,1,-9.5,0A9.5,9.5,0,1,1,9.5,0" style="fill: #4c78a8; stroke-width: 2;"></path><path transform="translate(0,170)" d="M1.5479075227916699,0A1.5479075227916699,1.5479075227916699,0,1,1,-1.5479075227916699,0A1.5479075227916699,1.5479075227916699,0,1,1,1.5479075227916699,0" style="fill: #4c78a8; stroke-width: 2;"></path><path transform="translate(70,70)" d="M1.4130397786082327,0A1.4130397786082327,1.4130397786082327,0,1,1,-1.4130397786082327,0A1.4130397786082327,1.4130397786082327,0,1,1,1.4130397786082327,0" style="fill: #4c78a8; stroke-width: 2;"></path><path transform="translate(0,200)" d="M7.790963678791462,0A7.790963678791462,7.790963678791462,0,1,1,-7.790963678791462,0A7.790963678791462,7.790963678791462,0,1,1,7.790963678791462,0" style="fill: #4c78a8; stroke-width: 2;"></path><path transform="translate(150,200)" d="M8.75628724812528,0A8.75628724812528,8.75628724812528,0,1,1,-8.75628724812528,0A8.75628724812528,8.75628724812528,0,1,1,8.75628724812528,0" style="fill: #4c78a8; stroke-width: 2;"></path><path transform="translate(70,200)" d="M3.895481839395731,0A3.895481839395731,3.895481839395731,0,1,1,-3.895481839395731,0A3.895481839395731,3.895481839395731,0,1,1,3.895481839395731,0" style="fill: #4c78a8; stroke-width: 2;"></path><path transform="translate(110,150)" d="M6.350823930937616,0A6.350823930937616,6.350823930937616,0,1,1,-6.350823930937616,0A6.350823930937616,6.350823930937616,0,1,1,6.350823930937616,0" style="fill: #4c78a8; stroke-width: 2;"></path><path transform="translate(150,30)" d="M8.166343079496196,0A8.166343079496196,8.166343079496196,0,1,1,-8.166343079496196,0A8.166343079496196,8.166343079496196,0,1,1,8.166343079496196,0" style="fill: #4c78a8; stroke-width: 2;"></path><path transform="translate(170,10)" d="M6.5367409540905745,0A6.5367409540905745,6.5367409540905745,0,1,1,-6.5367409540905745,0A6.5367409540905745,6.5367409540905745,0,1,1,6.5367409540905745,0" style="fill: #4c78a8; stroke-width: 2;"></path><path transform="translate(130,30)" d="M5.58105994310181,0A5.58105994310181,5.58105994310181,0,1,1,-5.58105994310181,0A5.58105994310181,5.58105994310181,0,1,1,5.58105994310181,0" style="fill: #4c78a8; stroke-width: 2;"></path><path transform="translate(50,10)" d="M1.09453590601566,0A1.09453590601566,1.09453590601566,0,1,1,-1.09453590601566,0A1.09453590601566,1.09453590601566,0,1,1,1.09453590601566,0" style="fill: #4c78a8; stroke-width: 2;"></path><path transform="translate(170,200)" d="M4.046330141080862,0A4.046330141080862,4.046330141080862,0,1,1,-4.046330141080862,0A4.046330141080862,4.046330141080862,0,1,1,4.046330141080862,0" style="fill: #4c78a8; stroke-width: 2;"></path><path transform="translate(150,90)" d="M3.4030504275413525,0A3.4030504275413525,3.4030504275413525,0,1,1,-3.4030504275413525,0A3.4030504275413525,3.4030504275413525,0,1,1,3.4030504275413525,0" style="fill: #4c78a8; stroke-width: 2;"></path><path transform="translate(110,130)" d="M6.319305999758523,0A6.319305999758523,6.319305999758523,0,1,1,-6.319305999758523,0A6.319305999758523,6.319305999758523,0,1,1,6.319305999758523,0" style="fill: #4c78a8; stroke-width: 2;"></path><path transform="translate(0,10)" d="M1.7873696499288347,0A1.7873696499288347,1.7873696499288347,0,1,1,-1.7873696499288347,0A1.7873696499288347,1.7873696499288347,0,1,1,1.7873696499288347,0" style="fill: #4c78a8; stroke-width: 2;"></path><path transform="translate(150,50)" d="M6.28763008099222,0A6.28763008099222,6.28763008099222,0,1,1,-6.28763008099222,0A6.28763008099222,6.28763008099222,0,1,1,6.28763008099222,0" style="fill: #4c78a8; stroke-width: 2;"></path><path transform="translate(110,200)" d="M7.583167199710228,0A7.583167199710228,7.583167199710228,0,1,1,-7.583167199710228,0A7.583167199710228,7.583167199710228,0,1,1,7.583167199710228,0" style="fill: #4c78a8; stroke-width: 2;"></path><path transform="translate(70,170)" d="M3.030632691910113,0A3.030632691910113,3.030632691910113,0,1,1,-3.030632691910113,0A3.030632691910113,3.030632691910113,0,1,1,3.030632691910113,0" style="fill: #4c78a8; stroke-width: 2;"></path><path transform="translate(150,10)" d="M7.23277630632561,0A7.23277630632561,7.23277630632561,0,1,1,-7.23277630632561,0A7.23277630632561,7.23277630632561,0,1,1,7.23277630632561,0" style="fill: #4c78a8; stroke-width: 2;"></path><path transform="translate(130,170)" d="M3.4030504275413525,0A3.4030504275413525,3.4030504275413525,0,1,1,-3.4030504275413525,0A3.4030504275413525,3.4030504275413525,0,1,1,3.4030504275413525,0" style="fill: #4c78a8; stroke-width: 2;"></path><path transform="translate(130,90)" d="M7.23277630632561,0A7.23277630632561,7.23277630632561,0,1,1,-7.23277630632561,0A7.23277630632561,7.23277630632561,0,1,1,7.23277630632561,0" style="fill: #4c78a8; stroke-width: 2;"></path><path transform="translate(90,200)" d="M5.362108949786505,0A5.362108949786505,5.362108949786505,0,1,1,-5.362108949786505,0A5.362108949786505,5.362108949786505,0,1,1,5.362108949786505,0" style="fill: #4c78a8; stroke-width: 2;"></path><path transform="translate(90,170)" d="M5.509043249251533,0A5.509043249251533,5.509043249251533,0,1,1,-5.509043249251533,0A5.509043249251533,5.509043249251533,0,1,1,5.509043249251533,0" style="fill: #4c78a8; stroke-width: 2;"></path><path transform="translate(130,110)" d="M7.09340339198441,0A7.09340339198441,7.09340339198441,0,1,1,-7.09340339198441,0A7.09340339198441,7.09340339198441,0,1,1,7.09340339198441,0" style="fill: #4c78a8; stroke-width: 2;"></path><path transform="translate(0,130)" d="M1.6719312133879447,0A1.6719312133879447,1.6719312133879447,0,1,1,-1.6719312133879447,0A1.6719312133879447,1.6719312133879447,0,1,1,1.6719312133879447,0" style="fill: #4c78a8; stroke-width: 2;"></path><path transform="translate(130,150)" d="M4.894913379330674,0A4.894913379330674,4.894913379330674,0,1,1,-4.894913379330674,0A4.894913379330674,4.894913379330674,0,1,1,4.894913379330674,0" style="fill: #4c78a8; stroke-width: 2;"></path><path transform="translate(110,90)" d="M4.191753387328147,0A4.191753387328147,4.191753387328147,0,1,1,-4.191753387328147,0A4.191753387328147,4.191753387328147,0,1,1,4.191753387328147,0" style="fill: #4c78a8; stroke-width: 2;"></path><path transform="translate(70,50)" d="M0.8936848249644174,0A0.8936848249644174,0.8936848249644174,0,1,1,-0.8936848249644174,0A0.8936848249644174,0.8936848249644174,0,1,1,0.8936848249644174,0" style="fill: #4c78a8; stroke-width: 2;"></path><path transform="translate(130,10)" d="M3.0958150455833398,0A3.0958150455833398,3.0958150455833398,0,1,1,-3.0958150455833398,0A3.0958150455833398,3.0958150455833398,0,1,1,3.0958150455833398,0" style="fill: #4c78a8; stroke-width: 2;"></path><path transform="translate(110,70)" d="M3.2836077180469805,0A3.2836077180469805,3.2836077180469805,0,1,1,-3.2836077180469805,0A3.2836077180469805,3.2836077180469805,0,1,1,3.2836077180469805,0" style="fill: #4c78a8; stroke-width: 2;"></path><path transform="translate(110,50)" d="M1.7873696499288347,0A1.7873696499288347,1.7873696499288347,0,1,1,-1.7873696499288347,0A1.7873696499288347,1.7873696499288347,0,1,1,1.7873696499288347,0" style="fill: #4c78a8; stroke-width: 2;"></path><path transform="translate(130,70)" d="M7.205117404606208,0A7.205117404606208,7.205117404606208,0,1,1,-7.205117404606208,0A7.205117404606208,7.205117404606208,0,1,1,7.205117404606208,0" style="fill: #4c78a8; stroke-width: 2;"></path><path transform="translate(150,70)" d="M5.826112260401138,0A5.826112260401138,5.826112260401138,0,1,1,-5.826112260401138,0A5.826112260401138,5.826112260401138,0,1,1,5.826112260401138,0" style="fill: #4c78a8; stroke-width: 2;"></path><path transform="translate(130,130)" d="M5.362108949786505,0A5.362108949786505,5.362108949786505,0,1,1,-5.362108949786505,0A5.362108949786505,5.362108949786505,0,1,1,5.362108949786505,0" style="fill: #4c78a8; stroke-width: 2;"></path><path transform="translate(110,30)" d="M1.9983400190804383,0A1.9983400190804383,1.9983400190804383,0,1,1,-1.9983400190804383,0A1.9983400190804383,1.9983400190804383,0,1,1,1.9983400190804383,0" style="fill: #4c78a8; stroke-width: 2;"></path><path transform="translate(70,10)" d="M0.8936848249644174,0A0.8936848249644174,0.8936848249644174,0,1,1,-0.8936848249644174,0A0.8936848249644174,0.8936848249644174,0,1,1,0.8936848249644174,0" style="fill: #4c78a8; stroke-width: 2;"></path><path transform="translate(70,150)" d="M2.0958766936640734,0A2.0958766936640734,2.0958766936640734,0,1,1,-2.0958766936640734,0A2.0958766936640734,2.0958766936640734,0,1,1,2.0958766936640734,0" style="fill: #4c78a8; stroke-width: 2;"></path><path transform="translate(90,110)" d="M1.895791799927557,0A1.895791799927557,1.895791799927557,0,1,1,-1.895791799927557,0A1.895791799927557,1.895791799927557,0,1,1,1.895791799927557,0" style="fill: #4c78a8; stroke-width: 2;"></path><path transform="translate(110,170)" d="M6.028233718918959,0A6.028233718918959,6.028233718918959,0,1,1,-6.028233718918959,0A6.028233718918959,6.028233718918959,0,1,1,6.028233718918959,0" style="fill: #4c78a8; stroke-width: 2;"></path><path transform="translate(110,110)" d="M5.324741881649728,0A5.324741881649728,5.324741881649728,0,1,1,-5.324741881649728,0A5.324741881649728,5.324741881649728,0,1,1,5.324741881649728,0" style="fill: #4c78a8; stroke-width: 2;"></path><path transform="translate(90,90)" d="M1.2638611999517047,0A1.2638611999517047,1.2638611999517047,0,1,1,-1.2638611999517047,0A1.2638611999517047,1.2638611999517047,0,1,1,1.2638611999517047,0" style="fill: #4c78a8; stroke-width: 2;"></path><path transform="translate(170,50)" d="M2.3644677973281367,0A2.3644677973281367,2.3644677973281367,0,1,1,-2.3644677973281367,0A2.3644677973281367,2.3644677973281367,0,1,1,2.3644677973281367,0" style="fill: #4c78a8; stroke-width: 2;"></path><path transform="translate(130,50)" d="M6.506123732123385,0A6.506123732123385,6.506123732123385,0,1,1,-6.506123732123385,0A6.506123732123385,6.506123732123385,0,1,1,6.506123732123385,0" style="fill: #4c78a8; stroke-width: 2;"></path><path transform="translate(170,130)" d="M0.6319305999758523,0A0.6319305999758523,0.6319305999758523,0,1,1,-0.6319305999758523,0A0.6319305999758523,0.6319305999758523,0,1,1,0.6319305999758523,0" style="fill: #4c78a8; stroke-width: 2;"></path><path transform="translate(170,30)" d="M3.791583599855114,0A3.791583599855114,3.791583599855114,0,1,1,-3.791583599855114,0A3.791583599855114,3.791583599855114,0,1,1,3.791583599855114,0" style="fill: #4c78a8; stroke-width: 2;"></path><path transform="translate(90,50)" d="M0.8936848249644174,0A0.8936848249644174,0.8936848249644174,0,1,1,-0.8936848249644174,0A0.8936848249644174,0.8936848249644174,0,1,1,0.8936848249644174,0" style="fill: #4c78a8; stroke-width: 2;"></path><path transform="translate(110,10)" d="M1.7873696499288347,0A1.7873696499288347,1.7873696499288347,0,1,1,-1.7873696499288347,0A1.7873696499288347,1.7873696499288347,0,1,1,1.7873696499288347,0" style="fill: #4c78a8; stroke-width: 2;"></path><path transform="translate(90,150)" d="M3.9966800381608767,0A3.9966800381608767,3.9966800381608767,0,1,1,-3.9966800381608767,0A3.9966800381608767,3.9966800381608767,0,1,1,3.9966800381608767,0" style="fill: #4c78a8; stroke-width: 2;"></path><path transform="translate(90,190)" d="M4.143846060966931,0A4.143846060966931,4.143846060966931,0,1,1,-4.143846060966931,0A4.143846060966931,4.143846060966931,0,1,1,4.143846060966931,0" style="fill: #4c78a8; stroke-width: 2;"></path><path transform="translate(110,190)" d="M3.4030504275413525,0A3.4030504275413525,3.4030504275413525,0,1,1,-3.4030504275413525,0A3.4030504275413525,3.4030504275413525,0,1,1,3.4030504275413525,0" style="fill: #4c78a8; stroke-width: 2;"></path><path transform="translate(0,70)" d="M1.2638611999517047,0A1.2638611999517047,1.2638611999517047,0,1,1,-1.2638611999517047,0A1.2638611999517047,1.2638611999517047,0,1,1,1.2638611999517047,0" style="fill: #4c78a8; stroke-width: 2;"></path><path transform="translate(190,200)" d="M0.6319305999758523,0A0.6319305999758523,0.6319305999758523,0,1,1,-0.6319305999758523,0A0.6319305999758523,0.6319305999758523,0,1,1,0.6319305999758523,0" style="fill: #4c78a8; stroke-width: 2;"></path><path transform="translate(190,10)" d="M0.6319305999758523,0A0.6319305999758523,0.6319305999758523,0,1,1,-0.6319305999758523,0A0.6319305999758523,0.6319305999758523,0,1,1,0.6319305999758523,0" style="fill: #4c78a8; stroke-width: 2;"></path><path transform="translate(90,130)" d="M2.964017245241413,0A2.964017245241413,2.964017245241413,0,1,1,-2.964017245241413,0A2.964017245241413,2.964017245241413,0,1,1,2.964017245241413,0" style="fill: #4c78a8; stroke-width: 2;"></path><path transform="translate(30,200)" d="M0.8936848249644174,0A0.8936848249644174,0.8936848249644174,0,1,1,-0.8936848249644174,0A0.8936848249644174,0.8936848249644174,0,1,1,0.8936848249644174,0" style="fill: #4c78a8; stroke-width: 2;"></path><path transform="translate(150,110)" d="M2.5277223999034093,0A2.5277223999034093,2.5277223999034093,0,1,1,-2.5277223999034093,0A2.5277223999034093,2.5277223999034093,0,1,1,2.5277223999034093,0" style="fill: #4c78a8; stroke-width: 2;"></path><path transform="translate(50,200)" d="M2.18907181203132,0A2.18907181203132,2.18907181203132,0,1,1,-2.18907181203132,0A2.18907181203132,2.18907181203132,0,1,1,2.18907181203132,0" style="fill: #4c78a8; stroke-width: 2;"></path><path transform="translate(0,30)" d="M2.0958766936640734,0A2.0958766936640734,2.0958766936640734,0,1,1,-2.0958766936640734,0A2.0958766936640734,2.0958766936640734,0,1,1,2.0958766936640734,0" style="fill: #4c78a8; stroke-width: 2;"></path><path transform="translate(70,190)" d="M2.6810544748932523,0A2.6810544748932523,2.6810544748932523,0,1,1,-2.6810544748932523,0A2.6810544748932523,2.6810544748932523,0,1,1,2.6810544748932523,0" style="fill: #4c78a8; stroke-width: 2;"></path><path transform="translate(50,170)" d="M1.7873696499288347,0A1.7873696499288347,1.7873696499288347,0,1,1,-1.7873696499288347,0A1.7873696499288347,1.7873696499288347,0,1,1,1.7873696499288347,0" style="fill: #4c78a8; stroke-width: 2;"></path><path transform="translate(190,30)" d="M0.8936848249644174,0A0.8936848249644174,0.8936848249644174,0,1,1,-0.8936848249644174,0A0.8936848249644174,0.8936848249644174,0,1,1,0.8936848249644174,0" style="fill: #4c78a8; stroke-width: 2;"></path><path transform="translate(90,10)" d="M0.8936848249644174,0A0.8936848249644174,0.8936848249644174,0,1,1,-0.8936848249644174,0A0.8936848249644174,0.8936848249644174,0,1,1,0.8936848249644174,0" style="fill: #4c78a8; stroke-width: 2;"></path><path transform="translate(50,70)" d="M1.09453590601566,0A1.09453590601566,1.09453590601566,0,1,1,-1.09453590601566,0A1.09453590601566,1.09453590601566,0,1,1,1.09453590601566,0" style="fill: #4c78a8; stroke-width: 2;"></path><path transform="translate(150,150)" d="M1.5479075227916699,0A1.5479075227916699,1.5479075227916699,0,1,1,-1.5479075227916699,0A1.5479075227916699,1.5479075227916699,0,1,1,1.5479075227916699,0" style="fill: #4c78a8; stroke-width: 2;"></path><path transform="translate(170,170)" d="M0.6319305999758523,0A0.6319305999758523,0.6319305999758523,0,1,1,-0.6319305999758523,0A0.6319305999758523,0.6319305999758523,0,1,1,0.6319305999758523,0" style="fill: #4c78a8; stroke-width: 2;"></path><path transform="translate(50,190)" d="M2.3644677973281367,0A2.3644677973281367,2.3644677973281367,0,1,1,-2.3644677973281367,0A2.3644677973281367,2.3644677973281367,0,1,1,2.3644677973281367,0" style="fill: #4c78a8; stroke-width: 2;"></path><path transform="translate(90,70)" d="M0.8936848249644174,0A0.8936848249644174,0.8936848249644174,0,1,1,-0.8936848249644174,0A0.8936848249644174,0.8936848249644174,0,1,1,0.8936848249644174,0" style="fill: #4c78a8; stroke-width: 2;"></path><path transform="translate(150,130)" d="M2.3644677973281367,0A2.3644677973281367,2.3644677973281367,0,1,1,-2.3644677973281367,0A2.3644677973281367,2.3644677973281367,0,1,1,2.3644677973281367,0" style="fill: #4c78a8; stroke-width: 2;"></path><path transform="translate(170,70)" d="M0.8936848249644174,0A0.8936848249644174,0.8936848249644174,0,1,1,-0.8936848249644174,0A0.8936848249644174,0.8936848249644174,0,1,1,0.8936848249644174,0" style="fill: #4c78a8; stroke-width: 2;"></path><path transform="translate(150,170)" d="M0.8936848249644174,0A0.8936848249644174,0.8936848249644174,0,1,1,-0.8936848249644174,0A0.8936848249644174,0.8936848249644174,0,1,1,0.8936848249644174,0" style="fill: #4c78a8; stroke-width: 2;"></path><path transform="translate(0,50)" d="M1.7873696499288347,0A1.7873696499288347,1.7873696499288347,0,1,1,-1.7873696499288347,0A1.7873696499288347,1.7873696499288347,0,1,1,1.7873696499288347,0" style="fill: #4c78a8; stroke-width: 2;"></path><path transform="translate(0,150)" d="M1.6719312133879447,0A1.6719312133879447,1.6719312133879447,0,1,1,-1.6719312133879447,0A1.6719312133879447,1.6719312133879447,0,1,1,1.6719312133879447,0" style="fill: #4c78a8; stroke-width: 2;"></path><path transform="translate(0,90)" d="M1.4130397786082327,0A1.4130397786082327,1.4130397786082327,0,1,1,-1.4130397786082327,0A1.4130397786082327,1.4130397786082327,0,1,1,1.4130397786082327,0" style="fill: #4c78a8; stroke-width: 2;"></path><path transform="translate(30,190)" d="M1.09453590601566,0A1.09453590601566,1.09453590601566,0,1,1,-1.09453590601566,0A1.09453590601566,1.09453590601566,0,1,1,1.09453590601566,0" style="fill: #4c78a8; stroke-width: 2;"></path><path transform="translate(130,190)" d="M1.09453590601566,0A1.09453590601566,1.09453590601566,0,1,1,-1.09453590601566,0A1.09453590601566,1.09453590601566,0,1,1,1.09453590601566,0" style="fill: #4c78a8; stroke-width: 2;"></path><path transform="translate(90,30)" d="M0.6319305999758523,0A0.6319305999758523,0.6319305999758523,0,1,1,-0.6319305999758523,0A0.6319305999758523,0.6319305999758523,0,1,1,0.6319305999758523,0" style="fill: #4c78a8; stroke-width: 2;"></path><path transform="translate(170,110)" d="M0.6319305999758523,0A0.6319305999758523,0.6319305999758523,0,1,1,-0.6319305999758523,0A0.6319305999758523,0.6319305999758523,0,1,1,0.6319305999758523,0" style="fill: #4c78a8; stroke-width: 2;"></path><path transform="translate(0,110)" d="M1.09453590601566,0A1.09453590601566,1.09453590601566,0,1,1,-1.09453590601566,0A1.09453590601566,1.09453590601566,0,1,1,1.09453590601566,0" style="fill: #4c78a8; stroke-width: 2;"></path><path transform="translate(70,130)" d="M0.6319305999758523,0A0.6319305999758523,0.6319305999758523,0,1,1,-0.6319305999758523,0A0.6319305999758523,0.6319305999758523,0,1,1,0.6319305999758523,0" style="fill: #4c78a8; stroke-width: 2;"></path><path transform="translate(170,90)" d="M0.6319305999758523,0A0.6319305999758523,0.6319305999758523,0,1,1,-0.6319305999758523,0A0.6319305999758523,0.6319305999758523,0,1,1,0.6319305999758523,0" style="fill: #4c78a8; stroke-width: 2;"></path><path transform="translate(50,150)" d="M0.6319305999758523,0A0.6319305999758523,0.6319305999758523,0,1,1,-0.6319305999758523,0A0.6319305999758523,0.6319305999758523,0,1,1,0.6319305999758523,0" style="fill: #4c78a8; stroke-width: 2;"></path><path transform="translate(0,190)" d="M0.8936848249644174,0A0.8936848249644174,0.8936848249644174,0,1,1,-0.8936848249644174,0A0.8936848249644174,0.8936848249644174,0,1,1,0.8936848249644174,0" style="fill: #4c78a8; stroke-width: 2;"></path><path transform="translate(50,130)" d="M0.6319305999758523,0A0.6319305999758523,0.6319305999758523,0,1,1,-0.6319305999758523,0A0.6319305999758523,0.6319305999758523,0,1,1,0.6319305999758523,0" style="fill: #4c78a8; stroke-width: 2;"></path><path transform="translate(50,30)" d="M0.6319305999758523,0A0.6319305999758523,0.6319305999758523,0,1,1,-0.6319305999758523,0A0.6319305999758523,0.6319305999758523,0,1,1,0.6319305999758523,0" style="fill: #4c78a8; stroke-width: 2;"></path></g><g class="mark-group role-legend"><g transform="translate(218,0)"><path class="background" d="M0,0h104v88h-104Z" style="pointer-events: none; fill: none;"></path><g><g class="mark-group role-legend-entry"><g transform="translate(0,16)"><path class="background" d="M0,0h0v0h0Z" style="pointer-events: none; fill: none;"></path><g><g class="mark-symbol role-legend-symbol" style="pointer-events: none;"><path transform="translate(9,5)" d="M4.4684241248220875,0A4.4684241248220875,4.4684241248220875,0,1,1,-4.4684241248220875,0A4.4684241248220875,4.4684241248220875,0,1,1,4.4684241248220875,0" style="fill: #4c78a8; stroke: #888; stroke-width: 1.5; opacity: 1;"></path><path transform="translate(9,21.5)" d="M6.319305999758523,0A6.319305999758523,6.319305999758523,0,1,1,-6.319305999758523,0A6.319305999758523,6.319305999758523,0,1,1,6.319305999758523,0" style="fill: #4c78a8; stroke: #888; stroke-width: 1.5; opacity: 1;"></path><path transform="translate(9,41)" d="M7.73953761395835,0A7.73953761395835,7.73953761395835,0,1,1,-7.73953761395835,0A7.73953761395835,7.73953761395835,0,1,1,7.73953761395835,0" style="fill: #4c78a8; stroke: #888; stroke-width: 1.5; opacity: 1;"></path><path transform="translate(9,63)" d="M8.936848249644175,0A8.936848249644175,8.936848249644175,0,1,1,-8.936848249644175,0A8.936848249644175,8.936848249644175,0,1,1,8.936848249644175,0" style="fill: #4c78a8; stroke: #888; stroke-width: 1.5; opacity: 1;"></path></g><g class="mark-text role-legend-label" style="pointer-events: none;"><text text-anchor="start" transform="translate(26,8)" style="font: 10px sans-serif; fill: #000; opacity: 1;">50</text><text text-anchor="start" transform="translate(26,24.5)" style="font: 10px sans-serif; fill: #000; opacity: 1;">100</text><text text-anchor="start" transform="translate(26,44)" style="font: 10px sans-serif; fill: #000; opacity: 1;">150</text><text text-anchor="start" transform="translate(26,66)" style="font: 10px sans-serif; fill: #000; opacity: 1;">200</text></g></g></g></g><g class="mark-text role-legend-title" style="pointer-events: none;"><text text-anchor="start" transform="translate(0,10)" style="font: bold 11px sans-serif; fill: #000; opacity: 1;">Number of Records</text></g></g></g></g><g class="mark-group role-axis"><g transform="translate(0.5,200.5)"><path class="background" d="M0,0h0v0h0Z" style="pointer-events: none; fill: none;"></path><g><g class="mark-rule role-axis-tick" style="pointer-events: none;"><line transform="translate(0,0)" x2="0" y2="5" style="fill: none; stroke: #888; stroke-width: 1; opacity: 1;"></line><line transform="translate(40,0)" x2="0" y2="5" style="fill: none; stroke: #888; stroke-width: 1; opacity: 1;"></line><line transform="translate(80,0)" x2="0" y2="5" style="fill: none; stroke: #888; stroke-width: 1; opacity: 1;"></line><line transform="translate(120,0)" x2="0" y2="5" style="fill: none; stroke: #888; stroke-width: 1; opacity: 1;"></line><line transform="translate(160,0)" x2="0" y2="5" style="fill: none; stroke: #888; stroke-width: 1; opacity: 1;"></line><line transform="translate(200,0)" x2="0" y2="5" style="fill: none; stroke: #888; stroke-width: 1; opacity: 1;"></line></g><g class="mark-text role-axis-label" style="pointer-events: none;"><text text-anchor="end" transform="translate(0,7) rotate(270) translate(0,3)" style="font: 10px sans-serif; fill: #000; opacity: 1;">0</text><text text-anchor="end" transform="translate(40,7) rotate(270) translate(0,3)" style="font: 10px sans-serif; fill: #000; opacity: 1;">2</text><text text-anchor="end" transform="translate(80,7) rotate(270) translate(0,3)" style="font: 10px sans-serif; fill: #000; opacity: 1;">4</text><text text-anchor="end" transform="translate(120,7) rotate(270) translate(0,3)" style="font: 10px sans-serif; fill: #000; opacity: 1;">6</text><text text-anchor="end" transform="translate(160,7) rotate(270) translate(0,3)" style="font: 10px sans-serif; fill: #000; opacity: 1;">8</text><text text-anchor="end" transform="translate(200,7) rotate(270) translate(0,3)" style="font: 10px sans-serif; fill: #000; opacity: 1;">10</text></g><g class="mark-rule role-axis-domain" style="pointer-events: none;"><line transform="translate(0,0)" x2="200" y2="0" style="fill: none; stroke: #888; stroke-width: 1; opacity: 1;"></line></g><g class="mark-text role-axis-title" style="pointer-events: none;"><text text-anchor="middle" transform="translate(100,31.123046875)" style="font: bold 11px sans-serif; fill: #000; opacity: 1;">BIN(IMDB_Rating)</text></g></g></g></g><g class="mark-group role-axis"><g transform="translate(0.5,0.5)"><path class="background" d="M0,0h0v0h0Z" style="pointer-events: none; fill: none;"></path><g><g class="mark-rule role-axis-tick" style="pointer-events: none;"><line transform="translate(0,200)" x2="-5" y2="0" style="fill: none; stroke: #888; stroke-width: 1; opacity: 1;"></line><line transform="translate(0,160)" x2="-5" y2="0" style="fill: none; stroke: #888; stroke-width: 1; opacity: 1;"></line><line transform="translate(0,120)" x2="-5" y2="0" style="fill: none; stroke: #888; stroke-width: 1; opacity: 1;"></line><line transform="translate(0,80)" x2="-5" y2="0" style="fill: none; stroke: #888; stroke-width: 1; opacity: 1;"></line><line transform="translate(0,40)" x2="-5" y2="0" style="fill: none; stroke: #888; stroke-width: 1; opacity: 1;"></line><line transform="translate(0,0)" x2="-5" y2="0" style="fill: none; stroke: #888; stroke-width: 1; opacity: 1;"></line></g><g class="mark-text role-axis-label" style="pointer-events: none;"><text text-anchor="end" transform="translate(-7,203)" style="font: 10px sans-serif; fill: #000; opacity: 1;">0</text><text text-anchor="end" transform="translate(-7,163)" style="font: 10px sans-serif; fill: #000; opacity: 1;">20</text><text text-anchor="end" transform="translate(-7,123)" style="font: 10px sans-serif; fill: #000; opacity: 1;">40</text><text text-anchor="end" transform="translate(-7,83)" style="font: 10px sans-serif; fill: #000; opacity: 1;">60</text><text text-anchor="end" transform="translate(-7,43)" style="font: 10px sans-serif; fill: #000; opacity: 1;">80</text><text text-anchor="end" transform="translate(-7,3)" style="font: 10px sans-serif; fill: #000; opacity: 1;">100</text></g><g class="mark-rule role-axis-domain" style="pointer-events: none;"><line transform="translate(0,200)" x2="0" y2="-200" style="fill: none; stroke: #888; stroke-width: 1; opacity: 1;"></line></g><g class="mark-text role-axis-title" style="pointer-events: none;"><text text-anchor="middle" transform="translate(-32,100) rotate(-90) translate(0,-2)" style="font: bold 11px sans-serif; fill: #000; opacity: 1;">BIN(Rotten_Tomatoes_Rating)</text></g></g></g></g></g></g></g></g></svg>